<?xml version="1.0" standalone="no"?>
<!DOCTYPE svg PUBLIC "-//W3C//DTD SVG 20010904//EN"
 "http://www.w3.org/TR/2001/REC-SVG-20010904/DTD/svg10.dtd">
<svg version="1.0" xmlns="http://www.w3.org/2000/svg"
 width="300.000000pt" height="300.000000pt" viewBox="0 0 300.000000 300.000000"
 preserveAspectRatio="xMidYMid meet">
<metadata>
Created by potrace 1.10, written by Peter Selinger 2001-2011
</metadata>
<g transform="translate(0.000000,300.000000) scale(0.050000,-0.050000)"
fill="#000000" stroke="none">
<path d="M2630 5846 c-1343 -174 -2411 -1305 -2483 -2631 -13 -226 -12 -235
27 -235 37 0 41 18 53 203 91 1389 1199 2500 2584 2591 145 9 189 19 189 41 0
35 160 23 480 -36 1246 -228 2199 -1275 2319 -2549 18 -189 17 -223 -9 -242
-20 -15 -30 -58 -30 -130 -1 -1292 -1217 -2545 -2535 -2612 -223 -12 -225 -12
-225 -61 l0 -50 175 14 c2454 199 3548 3057 1850 4834 -603 631 -1551 973
-2395 863z"/>
<path d="M2716 5640 c-291 -34 -800 -183 -857 -251 -37 -45 17 -37 135 20 472
228 1234 257 1796 69 1007 -338 1786 -1375 1790 -2383 0 -63 8 -115 19 -115
33 0 35 26 17 240 -121 1452 -1476 2583 -2900 2420z"/>
<path d="M2446 5448 c-656 -138 -1264 -581 -1616 -1177 -123 -207 -230 -470
-239 -587 -4 -52 -22 -174 -39 -272 -83 -463 -11 -1018 189 -1464 32 -73 55
-139 50 -147 -33 -53 324 -520 539 -707 324 -280 931 -588 1073 -543 21 6 37
4 37 -5 1 -64 1059 -46 1290 22 510 151 1007 506 1309 934 138 195 264 446
247 490 -9 25 -6 30 14 18 17 -10 21 -8 13 6 -8 11 8 87 35 168 169 503 168
1099 -1 1591 -27 80 -45 153 -39 162 43 70 -299 597 -547 844 -301 299 -992
685 -1131 632 -12 -5 -84 5 -161 21 -190 40 -857 49 -1023 14z m-52 -146 c42
7 67 -4 54 -25 -10 -17 10 -19 74 -8 544 91 1010 28 1471 -199 206 -101 521
-311 559 -373 18 -30 11 -26 -204 138 -1263 960 -3147 315 -3558 -1218 -380
-1418 539 -2761 1998 -2918 506 -54 1338 155 1512 379 6 7 87 73 180 145 969
750 1074 2474 202 3332 -71 71 -110 124 -106 148 4 20 -4 37 -17 37 -15 0 -19
18 -11 49 7 27 3 54 -8 61 -52 32 -12 48 42 16 184 -107 677 -749 678 -882 0
-32 8 -42 25 -31 20 12 20 8 0 -16 -20 -25 -19 -61 7 -185 19 -95 26 -187 18
-238 -8 -46 -11 -138 -7 -204 14 -242 3 -643 -21 -753 -13 -62 -27 -193 -30
-290 -20 -584 -484 -1178 -1192 -1524 -160 -78 -432 -108 -454 -50 -10 25 -46
24 -276 -11 -539 -82 -1137 56 -1613 371 -220 145 -211 141 -168 76 21 -33 54
-71 74 -85 50 -35 47 -84 -5 -84 -152 0 -692 585 -726 787 -2 13 -13 41 -25
63 -33 64 -93 346 -82 388 6 22 -6 98 -26 169 -82 296 -100 810 -39 1070 17
70 16 92 -7 110 -169 136 112 756 537 1183 369 371 923 668 1094 586 19 -9 41
-15 50 -14z m1149 -109 c406 -104 1017 -467 1085 -644 11 -29 8 -31 -18 -9
-55 46 -31 5 98 -167 641 -849 659 -1907 48 -2712 -204 -270 -192 -251 -146
-234 68 26 -172 -203 -320 -305 -775 -535 -1773 -548 -2535 -35 -214 145 -372
287 -342 307 15 11 -20 69 -106 176 -277 345 -455 746 -500 1126 -14 115 -45
160 -50 70 -1 -31 -10 -2 -20 64 -34 242 47 841 102 751 9 -13 34 30 60 103
95 267 290 588 492 813 69 77 89 111 70 122 -24 15 132 154 309 275 470 323
1201 446 1773 299z"/>
<path d="M2813 5227 c-2 -1 -52 -8 -113 -15 -135 -16 -235 -41 -386 -95 -154
-56 -136 -66 27 -15 192 61 442 98 689 100 121 2 207 6 190 10 -29 6 -400 21
-407 15z"/>
<path d="M2830 5089 c-527 -71 -840 -206 -1225 -528 -69 -58 -125 -113 -125
-123 0 -40 56 -13 131 63 700 717 1991 716 2777 -2 142 -131 174 -113 41 23
-365 373 -1101 634 -1599 567z"/>
<path d="M2712 4998 c-1215 -177 -1998 -1391 -1661 -2573 521 -1821 3046
-1987 3799 -250 626 1445 -588 3049 -2138 2823z m768 -77 c1770 -459 2039
-2899 410 -3718 -1521 -764 -3238 622 -2819 2274 268 1055 1368 1714 2409
1444z"/>
<path d="M2896 4925 c58 -4 148 -4 200 0 52 4 4 8 -106 8 -110 0 -152 -4 -94
-8z"/>
<path d="M2140 4743 c-310 -154 -640 -456 -808 -739 -54 -91 -92 -170 -85
-177 6 -7 18 4 26 25 100 276 491 670 852 860 180 95 192 119 15 31z"/>
<path d="M3040 4725 c0 -11 74 -29 165 -41 801 -105 1475 -843 1475 -1616 0
-53 9 -88 23 -88 16 0 19 50 11 175 -55 798 -736 1495 -1539 1577 -86 9 -135
6 -135 -7z"/>
<path d="M4030 4620 c208 -137 459 -389 588 -590 112 -175 140 -193 39 -25
-164 271 -552 638 -750 708 -20 7 35 -35 123 -93z"/>
<path d="M2666 4241 c-135 -82 -156 -335 -38 -453 l68 -68 314 0 314 0 68 68
c123 123 94 387 -52 462 -95 49 -590 42 -674 -9z m377 -111 c-3 -33 -28 -83
-55 -111 -37 -39 -48 -73 -48 -145 0 -52 -9 -94 -20 -94 -11 0 -20 57 -20 130
0 73 9 130 20 130 33 0 23 80 -11 93 -50 19 -83 -26 -53 -73 29 -48 33 -280 4
-280 -12 0 -29 21 -38 46 -10 25 -32 58 -50 72 -38 32 -42 104 -8 138 19 19
17 32 -10 58 -48 48 -85 8 -63 -68 9 -31 17 -67 18 -80 1 -13 22 -45 46 -71
59 -63 59 -102 0 -84 -140 42 -184 260 -74 370 35 35 62 40 205 35 l164 -6 -7
-60z m63 -5 c-6 -41 -33 -98 -59 -126 -34 -37 -47 -74 -47 -136 0 -52 -8 -81
-20 -73 -46 28 -22 161 40 220 43 41 60 76 60 124 0 36 8 66 19 66 10 0 13
-34 7 -75z m71 -19 c1 -56 -11 -115 -30 -143 -44 -68 11 -133 67 -77 27 26 29
39 10 58 -52 52 -30 256 27 256 137 0 205 -232 103 -351 -65 -76 -136 -63 -76
14 23 29 42 68 42 85 0 18 11 50 25 72 20 32 18 45 -8 72 -61 61 -103 -11 -53
-92 21 -32 18 -48 -16 -94 -22 -31 -47 -72 -54 -92 -11 -29 -31 -35 -99 -30
-116 8 -134 111 -36 205 47 45 61 76 61 135 0 111 35 93 37 -18z"/>
<path d="M1185 3706 c-48 -112 -92 -266 -79 -279 5 -5 20 35 33 87 13 53 41
136 63 184 21 49 35 92 31 96 -4 4 -26 -36 -48 -88z"/>
<path d="M2915 3492 c-185 -68 -195 -102 -195 -692 l0 -482 -80 -76 c-116
-110 -122 -344 -12 -454 l68 -68 318 0 c255 0 326 6 362 31 148 104 138 439
-14 518 l-62 32 0 505 c0 464 -3 509 -39 568 -74 120 -211 167 -346 118z m105
-166 c0 -89 -9 -123 -44 -160 l-44 -47 144 -137 144 -136 0 -112 c0 -108 -3
-114 -90 -185 l-90 -74 0 -234 0 -234 -62 -58 c-35 -33 -75 -86 -90 -119 l-26
-60 -1 61 c-1 44 18 80 69 129 l70 68 0 220 0 220 67 71 c106 113 143 281 61
281 -39 0 -59 -57 -31 -85 42 -42 24 -106 -47 -175 l-70 -68 0 -222 0 -222
-80 -78 c-56 -55 -80 -95 -80 -134 0 -52 -5 -56 -55 -44 -180 42 -195 407 -18
432 41 6 43 17 49 286 l5 279 64 66 c34 36 55 65 45 65 -10 0 -39 -25 -64 -55
l-45 -55 0 72 c-1 47 13 84 39 108 31 28 40 62 40 154 0 106 5 119 50 136 56
21 67 75 19 93 -50 20 -67 -14 -90 -184 -29 -213 -59 -238 -58 -48 0 162 26
229 101 271 97 54 118 39 118 -86z m80 -91 c9 -180 13 -194 65 -235 30 -23 55
-62 55 -86 0 -36 -14 -29 -95 51 l-95 93 6 192 c9 260 50 250 64 -15z m119
-91 l0 -174 -50 56 c-44 51 -49 73 -48 230 l0 174 50 -56 c44 -51 49 -73 48
-230z m5 -722 c-7 -172 -5 -179 40 -193 177 -53 197 -364 28 -428 -97 -37
-157 -28 -128 19 20 31 20 44 0 64 -46 46 -32 129 16 86 22 -20 40 -49 40 -64
0 -38 55 -55 89 -27 40 33 16 81 -40 81 -58 0 -129 88 -129 160 0 29 -18 70
-40 90 -71 64 -55 207 32 307 97 111 99 110 92 -95z m-104 -390 c0 -71 -10
-134 -24 -148 -20 -20 -20 -33 0 -64 23 -38 19 -40 -76 -40 -125 0 -133 40
-30 140 63 61 70 79 70 176 0 95 4 106 30 84 21 -17 30 -63 30 -148z"/>
<path d="M2950 2960 c-7 -11 -7 -37 -1 -56 7 -24 -9 -56 -49 -94 l-60 -57 0
-264 c0 -283 -5 -298 -125 -358 -58 -29 -58 -79 0 -87 33 -5 45 3 45 31 0 21
23 59 50 85 48 45 50 55 50 308 l0 261 93 94 c61 62 88 105 80 125 -13 36 -64
43 -83 12z"/>
<path d="M2940 2740 c-24 -15 -31 -81 -37 -334 l-7 -316 -61 -64 c-33 -35 -80
-67 -103 -70 -27 -4 -42 -21 -42 -46 0 -58 66 -63 88 -6 10 25 50 77 90 115
l72 69 0 268 c0 253 2 270 45 305 54 43 13 115 -45 79z"/>
<path d="M3107 2409 c-7 -18 -2 -42 10 -54 13 -13 23 -47 23 -75 0 -32 23 -75
60 -110 33 -32 60 -73 60 -93 0 -51 39 -67 75 -30 33 33 7 93 -41 93 -79 0
-163 163 -111 215 29 29 7 85 -33 85 -17 0 -37 -14 -43 -31z"/>
<path d="M1069 3291 c-8 -62 -10 -117 -4 -122 5 -6 15 41 23 103 7 63 9 118 4
123 -5 4 -15 -42 -23 -104z"/>
<path d="M4927 2980 c0 -104 4 -147 8 -95 4 52 4 138 0 190 -4 52 -8 10 -8
-95z"/>
<path d="M1046 3000 c0 -71 4 -101 8 -65 5 36 5 94 0 130 -4 36 -8 7 -8 -65z"/>
<path d="M1240 2908 c0 -617 496 -1319 1097 -1554 261 -102 638 -170 619 -112
-6 19 -59 32 -168 42 -781 67 -1505 850 -1508 1631 0 36 -9 65 -20 65 -11 0
-20 -32 -20 -72z"/>
<path d="M4716 2122 c-220 -448 -534 -729 -1096 -980 l-50 -22 50 11 c299 67
790 445 994 764 76 119 216 403 204 413 -5 4 -50 -80 -102 -186z"/>
<path d="M1282 2055 c105 -206 299 -442 478 -584 130 -102 397 -271 428 -271
11 0 -59 47 -155 104 -287 171 -555 442 -712 721 -75 134 -102 154 -39 30z"/>
<path d="M2340 1143 c35 -23 264 -84 303 -81 15 1 -31 17 -103 37 -71 19 -152
41 -180 49 -35 10 -41 8 -20 -5z"/>
<path d="M3497 1110 c-5 -5 -81 -23 -168 -39 -131 -25 -140 -29 -49 -21 110 9
318 64 258 68 -17 1 -36 -2 -41 -8z"/>
<path d="M2935 1026 c36 -5 94 -5 130 0 36 4 7 8 -65 8 -71 0 -101 -4 -65 -8z"/>
<path d="M1113 3915 c-219 -462 -271 -977 -147 -1457 56 -215 183 -507 212
-489 11 6 -11 77 -51 164 -253 547 -234 1316 45 1801 51 89 60 126 29 126 -11
0 -50 -65 -88 -145z"/>
<path d="M4813 3985 c-6 -9 10 -62 36 -116 276 -578 253 -1315 -58 -1882 -78
-140 -80 -147 -52 -147 27 0 112 151 190 335 219 520 215 1112 -12 1651 -66
156 -86 187 -104 159z"/>
<path d="M1433 1604 c-43 -68 515 -477 799 -585 123 -46 35 37 -105 100 -183
82 -414 242 -570 395 -62 60 -118 101 -124 90z"/>
<path d="M4337 1427 c-437 -388 -1057 -567 -1662 -481 -115 17 -162 -7 -70
-35 208 -64 740 -27 1042 71 296 97 794 405 828 513 16 49 -35 24 -138 -68z"/>
<path d="M369 2805 c142 -1796 2009 -2945 3645 -2243 170 73 72 61 -167 -20
-1642 -557 -3273 531 -3438 2293 -7 80 -22 145 -33 145 -14 0 -16 -61 -7 -175z"/>
<path d="M340 1685 c0 -30 194 -340 306 -489 259 -344 1014 -955 1014 -821 0
8 -50 41 -111 73 -398 208 -893 715 -1118 1147 -49 92 -91 135 -91 90z"/>
</g>
</svg>
