<svg baseProfile="tiny" xmlns="http://www.w3.org/2000/svg" viewBox="0 0 630 300" overflow="visible" xml:space="preserve"><path fill="#F1F2F2" d="M295.45 8.19h135.87c7.22 0 9.55 2.31 9.55 9.46 0 19.43.03 38.86-.07 58.29-.01 2.36.45 3.19 3.01 3.15 9.72-.16 19.45-.07 29.18-.06 5.41.01 7.99 2.53 7.99 7.84.02 48.77.03 97.54.03 146.31 0 5.3-2.61 7.88-7.98 7.89-10.32.02-20.63.07-30.95-.04-2.19-.02-2.83.58-2.81 2.79.1 12.85 0 25.71.08 38.56.02 3.77-.91 6.88-4.72 8.26-3.81 1.38-6.52-.43-8.91-3.34-11.84-14.41-23.8-28.71-35.6-43.16-1.85-2.27-3.76-3.12-6.7-3.12-47.35.09-94.71.06-142.06.06-7.12 0-9.22-2.09-9.4-9.26-.02-.72.45-1.79-.46-2.04-.42-.12-1.23.75-1.7 1.31-5.72 6.86-11.4 13.75-17.1 20.63-2.31 2.79-4.89 4.94-8.86 3.43-3.96-1.51-4.78-4.66-4.76-8.52.09-15.6-.02-31.2.09-46.81.02-2.37-.48-3.15-3.01-3.12-12.57.14-25.15.07-37.73.06-5.84-.01-8.65-2.81-8.65-8.68-.02-57.11-.03-114.22-.03-171.33 0-6.01 2.7-8.6 8.94-8.6 45.59-.01 91.17 0 136.76 0v.04zm.18 14.12c-42.93 0-85.86.02-128.79-.05-2.24 0-2.98.46-2.97 2.87.08 51.51.08 103.02 0 154.53 0 2.54.76 3.04 3.14 3.02 12.67-.12 25.34-.06 38.02-.05 5.56 0 8.25 2.71 8.26 8.32.02 11.58 0 23.16.02 34.73 0 .74-.02 1.98.32 2.11.91.36 1.15-.79 1.6-1.33 10.97-13.2 21.98-26.37 32.82-39.67 2.38-2.92 4.99-4.22 8.8-4.21 55.5.08 111 .04 166.51.12 2.63 0 3.41-.55 3.4-3.32-.09-51.31-.09-102.63 0-153.94 0-2.63-.66-3.18-3.22-3.18-42.65.08-85.28.05-127.91.05zm50.93 174.47v.03c-27.5 0-55.01.11-82.51-.11-4.33-.03-6.84 1.4-9.84 4.47-6.38 6.54-9.62 13.6-8.35 22.82.35 2.59.87 3.14 3.36 3.14 46.46-.08 92.93-.03 139.39-.11 3.76-.01 6.51 1.19 8.88 4.11 8.53 10.5 17.2 20.89 25.83 31.31.46.55.77 1.61 1.69 1.21.32-.14.3-1.23.3-1.88.02-8.63-.01-17.27.01-25.9.01-6.26 2.49-8.75 8.73-8.76 10.12-.01 20.24-.05 30.35.03 1.92.02 2.72-.3 2.72-2.51-.08-43.07-.09-86.14-.05-129.21 0-1.87-.4-2.52-2.4-2.48-6.87.13-13.75.17-20.63-.01-2.48-.06-3.26.41-3.25 3.11.11 30.32.07 60.63.07 90.95 0 7.16-2.62 9.8-9.73 9.8-28.19-.01-56.38-.01-84.57-.01zm-26.7-94.38c.41-13.2 4.15-25.59 17.22-33.05 17.29-9.87 41.74-4.05 50.96 11.92 8.09 14.02 6.63 36.32-3.31 48.88-1.14 1.44-.9 1.99.53 2.79 3.24 1.82 6.43 3.73 9.6 5.68 2.31 1.42 3.15 3.54 1.97 6.03-1.16 2.47-3.16 3.66-6.01 2.89-5.23-1.41-9.41-4.73-13.74-7.72-1.51-1.04-2.69-1.16-4.49-.56-14.37 4.78-28.34 4.61-40.55-5.43-9.52-7.8-11.96-18.87-12.18-31.43zm58.29-.45c-.21-1.61-.39-4.76-1.04-7.82-2.17-10.24-9.51-16.99-18.71-17.44-10.91-.53-18.39 4.39-21.63 14.66-2.63 8.35-2.63 16.84.36 25.1 3.82 10.55 13.88 15.9 24.39 13.22.89-.23 2.14-.16 2.4-1.16.09-.35-1.13-1.16-1.85-1.57-2.55-1.45-5.14-2.82-7.72-4.22-1.79-.97-2.63-2.41-1.88-4.37.76-1.98 2.38-2.84 4.46-2.47 1.34.24 2.72.57 3.91 1.2 2.93 1.55 5.92 3.08 8.59 5.03 2.11 1.53 3.06.96 4.27-.95 3.42-5.43 4.27-11.47 4.45-19.21zm-100.04 21.01c-4.32 0-8.64.08-12.96-.04-1.79-.05-2.55.58-3.13 2.25-1.49 4.23-3.11 8.43-4.93 12.54-1.81 4.08-4.81 5.36-8.49 4-3.92-1.45-5.79-5.09-4.22-9.28 3.65-9.79 7.53-19.49 11.34-29.22 3.95-10.09 7.83-20.22 11.91-30.25 3.38-8.3 11.67-10.88 17.64-5.67 1.98 1.72 3.07 4.04 4.03 6.4 7.29 18.01 14.58 36.02 21.83 54.05.76 1.89 1.44 3.86 1.84 5.85.77 3.79-1.05 6.86-4.56 8.13-3.52 1.27-6.82.04-8.52-3.62-1.97-4.24-3.66-8.62-5.31-13-.61-1.63-1.43-2.22-3.2-2.17-4.43.12-8.85.03-13.27.03zm-.09-11.05c3.14 0 6.28-.07 9.41.03 1.82.06 2.18-.38 1.52-2.16-3.35-8.95-6.56-17.96-9.87-26.93-.2-.54-.07-1.62-1.06-1.44-.35.06-.65.87-.84 1.38-3.24 8.99-6.43 18.01-9.71 26.99-.59 1.62-.53 2.26 1.43 2.17 3.04-.13 6.08-.04 9.12-.04zm-84.74 19.58c.01 1.85.16 3.75.64 5.52.86 3.17 3.09 4.9 6.42 5.07 4.43.23 7.53-2.36 7.68-7.01.26-8.14.23-16.29.15-24.43-.02-2.12.64-2.63 2.67-2.6 7.47.11 14.93.09 22.4.02 4.73-.04 7.15-2.05 7.06-5.61-.09-3.46-2.45-5.33-7-5.36-7.37-.05-14.74-.13-22.11.05-2.56.06-3.12-.78-3.03-3.15.18-4.51.19-9.03 0-13.54-.11-2.44.58-3.15 3.07-3.11 9.33.15 18.67.12 28 .01 4.75-.06 7.32-3.47 5.85-7.58-1.11-3.1-3.79-3.71-6.68-3.71-11.69-.02-23.38-.02-35.08-.01-7.56.01-10.02 2.44-10.06 10.07-.05 9.32-.01 18.65-.01 27.97 0 9.14-.03 18.27.03 27.4z"/></svg>