<?xml version="1.0" encoding="utf-8"?>
<!-- Generator: Adobe Illustrator 27.9.0, SVG Export Plug-In . SVG Version: 6.00 Build 0)  -->
<svg version="1.1" baseProfile="tiny" id="Layer_1" xmlns="http://www.w3.org/2000/svg" xmlns:xlink="http://www.w3.org/1999/xlink"
	 x="0px" y="0px" viewBox="0 0 630 300" overflow="visible" xml:space="preserve">
<path fill="#F1F2F2" d="M279.47,287.97c-39,0-78.03,0.83-117-0.42c-14.79-0.47-24.21-13.17-24.37-26.55
	c-0.66-56.38-0.21-112.8,1.61-169.15c0.48-14.71,12.45-23.15,28.04-23.17c51.34-0.09,102.75-1.61,153.98,0.75
	c20.24,0.93,19.7-13.8,26.11-23.37c18.71-27.93,45.66-40.71,77.72-39.19c37.82,1.79,63.62,20.68,67.66,61.22
	c2.2,22.08-3.59,42.32-23.81,53.5c-15.86,8.77-32.44,9.59-37.96-14.16c-0.94,0.52-2.12,0.84-2.78,1.6
	c-11.36,13.15-24.48,22.22-42.6,15.06c-13.45-5.31-16.62-17.16-15.29-30.27c2.08-20.52,12.73-36.21,31.53-43.82
	c10.91-4.41,24.06-6.54,35.71-5.24c32.67,3.63,7.88,24.82,9.52,37.65c1.3,10.17-5.87,21.27,0.97,31.2
	c1.33,1.93,8.27,1.88,11.45,0.33c12.77-6.21,17.62-18.18,18.5-31.3c2.42-35.84-12.09-60.53-49.75-64.08
	c-40.56-3.82-75.51,23.93-78.88,59.53c-5.69,59.99,33.39,90.1,91.8,70.89c2.07-0.68,6.12-0.35,6.8,0.88
	c1.24,2.21,1.18,7.82,0.71,7.94c-55.62,13.1-23.12,56.75-26.96,85.46c-4.14,30.92-12.1,47.55-45.24,46.62
	c-32.46-0.91-64.97-0.2-97.45-0.2C279.47,289.11,279.47,288.54,279.47,287.97z M279.44,275.78c36.22,0,72.44,0.07,108.66-0.04
	c12.26-0.04,18.41-6.56,19.19-18.76c2.44-38.38-34.81-43.73-54.25-63.35c-10.62-10.71-22.68-37.08-45.28-12.41
	c-21.22,23.16-41.75,16.77-60.74-2.52c-8.92-9.06-15.22-9.67-24.93-0.98c-19.79,17.69-39.88,35.27-61.43,50.67
	c-14.65,10.46-9.72,23.61-7.98,35.41c1.82,12.35,13.79,12.12,24.22,12.06C211.05,275.65,245.24,275.78,279.44,275.78z M249.01,80.84
	c-26.68,0-53.36-0.25-80.03,0.26c-4.33,0.08-8.61,3.55-12.91,5.45c2.34,2.29,4.52,4.75,7.03,6.83
	c16.45,13.65,31.45,29.97,49.82,40.21c31.37,17.49,52.85,79.99,102.68,25.69c8.63-9.4,19.73-16.54,28.28-26
	c1.47-1.63-4.14-9.67-6.48-14.75c-7.5,5.74-14.32,12.84-22.63,16.92c-15.04,7.39-21.71,35.92-43.91,22.8
	c-20.27-11.98-37.08-29.88-55.09-45.54c-2.61-2.27-3.44-6.59-5.09-9.96c3.44-1.5,6.86-4.27,10.31-4.3
	c33.92-0.33,67.85-0.21,101.78-0.18c6.05,0,11.84,2.09,11.86-8.67c0.02-10.6-5.5-8.79-11.68-8.77
	C298.31,80.88,273.66,80.84,249.01,80.84z M151.39,159.95c0,9.56-0.11,19.13,0.03,28.69c0.15,9.71,0.54,19.42,0.83,29.12
	c7.45-5.59,15.02-11.04,22.31-16.82c7.61-6.04,14.18-13.86,22.57-18.37c29.6-15.92,25.74-29.51-0.31-45.56
	c-15.87-9.77-29.61-23-44.31-34.67c-0.37,18.04-0.75,36.09-1.12,54.13C151.37,157.63,151.39,158.79,151.39,159.95z M408.47,192.86
	c-7.45-7.42,8.81-22.79-8.63-26.35c-15.61-3.19-29.46-8.45-42.49-17.68c-10.86-7.69-13.63,7.86-21.58,9.56
	c1.83,2.37,3.33,5.12,5.55,7.03c10.85,9.36,21.84,18.54,32.87,27.69c9.43,7.82,18.37,20.5,28.66,21.76
	C412.2,216.01,403.78,200.78,408.47,192.86z M386.02,109.35c0.31-2.32,5.55,7.15,16.18,5.49c29.46-4.59,29.08-31.02,34.13-52.65
	c0.25-1.09-6.48-5.69-9.68-5.41C403.01,58.84,389.9,72.07,386.02,109.35z"/>
<path fill="#E6E7E8" d="M279.53,251.39c14.46,0,28.93-0.21,43.37,0.23c2.06,0.06,5.27,2.94,5.78,5.05c1.04,4.29,0.84,8.63-5.98,8.59
	c-29.21-0.19-58.42-0.22-87.63,0.02c-6.94,0.05-5.86-4.61-5.12-8.14c0.46-2.19,3.41-5.43,5.33-5.49
	C250.02,251.19,264.78,251.39,279.53,251.39z"/>
</svg>
