<?xml version="1.0" encoding="utf-8"?>
<!-- Generator: Adobe Illustrator 27.9.0, SVG Export Plug-In . SVG Version: 6.00 Build 0)  -->
<svg version="1.1" baseProfile="tiny" id="Layer_1" xmlns="http://www.w3.org/2000/svg" xmlns:xlink="http://www.w3.org/1999/xlink"
	 x="0px" y="0px" viewBox="0 0 630 300" overflow="visible" xml:space="preserve">
<path fill="#F1F2F2" d="M325.76,8.84c77.77,7.99,132.73,70.1,130.14,147.05c-2.44,72.25-62.76,132.58-135.02,135.02
	c-76.95,2.6-139.06-52.37-147.05-130.14c-0.13-0.55-0.26-1.11-0.4-1.66c0-6.25,0-12.51,0-18.76c0.13-0.55,0.26-1.11,0.4-1.66
	c7.35-71.45,58.39-122.5,129.85-129.84c0.55-0.13,1.11-0.26,1.66-0.4c6.25,0,12.51,0,18.76,0C324.65,8.57,325.21,8.7,325.76,8.84z
	 M314.71,281.04c72.27,0.01,131.2-58.84,131.33-131.18C446.18,77.54,387.11,18.4,314.73,18.4c-72.28-0.01-131.2,58.84-131.33,131.18
	C183.26,221.9,242.33,281.03,314.71,281.04z"/>
<path fill="#E6E7E8" d="M310.24,84.14c-9.2,0-18.42,0.42-27.58-0.14c-6.46-0.4-9.98,0.38-8.83,8.19c1.08,7.33,6.37,3.31,8.89,3.13
	c6.34-0.46,8.97,1.82,10.55,7.72c1.99,7.42,3.98,15.16,7.75,21.73c16,27.85-4.52,50.34-10.31,74.95
	c-1.25,5.32-3.65,10.36-5.52,15.53c-1.92-5.14-3.91-10.25-5.74-15.42c-11.93-33.63-23.79-67.29-35.79-100.9
	c-1.04-2.91-0.13-2.68,2.36-3.53c4.03-1.39,10.26,4.91,12.17-3.21c1.62-6.84-1.32-8.68-8.11-8.21c-9.89,0.68-19.85,0.19-29.78,0.16
	c-1.14,0-2.28-0.22-3.42-0.34c0.61-0.99,1.17-2.02,1.85-2.97c40.59-57.17,124.13-66.08,175.22-18.69c0.39,0.36,0.72,0.78,1.07,1.17
	c-0.58,0.13-1.15,0.32-1.73,0.37c-18.33,1.6-27.98,18.7-17.07,32.34c20.21,25.26,21.21,51.99,9.91,80.8
	c-4.72,12.03-8.61,24.39-12.89,36.6c-0.21,0.6-0.51,1.17-0.77,1.75c-0.3-0.5-0.68-0.96-0.87-1.49
	c-13.68-38.66-27.31-77.33-41.04-115.98c-1.05-2.94,1.04-1.67,2.13-2.09c4.59-1.72,11.4,3.93,13.95-2.8
	c2.66-7.01-1.11-9.47-8.55-8.85C328.87,84.72,319.53,84.14,310.24,84.14z M347.5,263.33c1.79-0.49,1.99-1.12,1.39-2.79
	c-11.04-31.01-22.01-62.05-33.01-93.08c-0.24-0.68-0.59-1.32-0.89-1.97c-0.3,0.66-0.65,1.31-0.91,1.99
	c-10.81,28.56-21.2,57.29-32.68,85.57c-3.47,8.55-1.35,10.98,6.67,11.9c8.83,1.01,17.61,2.41,26.41,3.64
	C325.78,267.95,336.72,266.27,347.5,263.33z M371.04,253.52c55.9-28.13,78.96-104.27,48.14-158.99c-0.28-0.5-0.73-0.91-1.1-1.36
	c-0.03,0.7-0.16,1.41-0.08,2.09c1.33,10.99,0.63,21.98-2.84,32.37c-7.79,23.32-16.39,46.36-24.55,69.56
	c-6.6,18.77-13.04,37.6-19.55,56.41L371.04,253.52z M204.95,105.85c-22.24,54.12,0.85,119.3,52.07,146.98
	c0.54,0.29,1.15,0.48,1.72,0.72c-0.13-0.69-0.17-1.42-0.4-2.08c-17.12-48.44-34.25-96.88-51.39-145.32
	c-0.26-0.73-0.64-1.42-1.1-2.43C205.45,104.69,205.19,105.26,204.95,105.85z"/>
</svg>
