<?xml version="1.0" encoding="utf-8"?>
<!-- Generator: Adobe Illustrator 27.9.0, SVG Export Plug-In . SVG Version: 6.00 Build 0)  -->
<svg version="1.1" baseProfile="tiny" id="Layer_1" xmlns="http://www.w3.org/2000/svg" xmlns:xlink="http://www.w3.org/1999/xlink"
	 x="0px" y="0px" viewBox="0 0 630 300" overflow="visible" xml:space="preserve">
<path fill="#F1F2F2" d="M359.02,294.79c-24.88,0-49.76-0.31-74.63,0.2c-6.73,0.14-9.03-1.61-7.66-7.98
	c1.97-9.16-1.83-11.07-10.67-10.77c-22.09,0.75-44.22,0.27-66.34,0.24c-13.46-0.02-24.2-10.06-23.53-22.99
	c0.75-14.42,9.09-22.34,23.49-22.66c18.67-0.41,37.36-0.15,56.05-0.04c2.32,0.01,2.76-0.62,2.74-2.82
	c-0.1-15.44-0.09-30.88-0.03-46.33c0.01-4.09-1.84-5.87-5.91-5.85c-13.15,0.07-26.31,0.22-39.46-0.04
	c-8.66-0.17-13.98-5.02-13.97-13.69c0.02-8.66,5.35-13.43,14.02-13.64c10.19-0.25,20.41,0.24,30.59-0.15
	c8.73-0.33,4.77-7.42,5.47-11.81c0.63-3.92-1.06-6.39-5.5-6.42c-13.62-0.1-27.32,0.56-40.84-0.69
	c-15.16-1.4-26.52-15.31-26.78-30.54c-0.27-15.62,10.43-29.22,25.45-32.1c1.93-0.37,2.14-1.01,2.09-2.72
	c-0.77-22.81,12.57-42.71,33.45-50.03c21.23-7.45,43.53-0.39,57.66,18.12c0.5,0.66,2.24,1.03,3.05,0.69
	c12.95-5.5,25.27-4.47,36.83,3.56c1.94,1.35,2.43,0.05,3.65-0.72c8.52-5.35,12.08-23.05,28.06-10.49c3.13,2.46,5.37-4.02,5.81-7.65
	c0.62-5.17,2.77-7.19,8.2-6.51c4.88,0.61,9.95,0.6,14.84,0.03c9.17-1.08,16.07,0.13,16.35,11.59c0.02,0.97,4.45,3.07,4.92,2.62
	c12-11.34,17.2,0.59,24.02,6.83c6.73,6.15,15.22,11.73,5.28,22.16c-1.35,1.41,0.13,5.31,3.4,5.47c9.12,0.44,12.23,4.98,10.72,13.78
	c-0.65,3.8-0.63,7.88-0.01,11.69c1.49,9.13-1.29,14.21-11.22,14.9c-3.12,0.22-4.51,3.9-2.27,6.53c5.81,6.8,5.37,12.33-2.22,17.22
	c-2.27,1.46-2.76,3.64-2.76,6.35c0.09,53.86,0.04,107.71,0.14,161.57c0,2.73-0.76,3.16-3.28,3.15
	C411.82,294.75,385.42,294.79,359.02,294.79z M432.28,210.93c0-24.11,0.01-48.22-0.03-72.33c0-0.73-0.5-1.45-0.76-2.18
	c-5.44,7.72-9.24,0.01-13.44-1.69c-2.8-1.13-6.05-0.12-6.15,1.2c-1.38,19.34-16.03,10.93-25.7,12.34
	c-7.23,1.06-14.58,1.67-14.96-9.4c-0.17-5-3.56-5.67-8.11-3.5c-3.07,1.46-6.48,7-9.32,3.61c-6.45-7.72-13.87-9.59-23.42-9.09
	c-13.97,0.73-28.01,0.22-42.01,0.15c-1.88-0.01-2.57,0.27-2.57,2.4c0.08,32.02,0.05,64.04,0.12,96.05c0,0.75,0.99,2.19,1.4,2.15
	c17.26-1.81,31.34,7.94,46.73,12.85c4.21,1.34,6.38,5.06,6.65,9.5c0.27,4.35-1.36,8.58-5.32,9.97
	c-15.32,5.39-29.5,15.01-46.79,13.49c-2.64-0.23-3.45,1.04-2.64,3c0.85,2.06-2.98,6.2,2.62,6.2c46.98,0,93.96-0.03,140.94,0.07
	c2.55,0.01,2.83-0.82,2.82-3.03C432.25,258.76,432.28,234.84,432.28,210.93z M301.26,120.91c10.48,0,20.97,0.01,31.45-0.03
	c0.6,0,1.19-0.44,1.79-0.68c-8.06-5.85,0.68-9.57,1.86-14.22c0.73-2.88,0.06-5.85-2.67-5.97c-10.48-0.47-12.64-6.25-11.33-15.35
	c0.62-4.3,0.66-8.84-0.02-13.12c-1.17-7.41,1.52-10.93,8.97-11.39c3.77-0.23,6.66-2.45,4.99-6.47
	c-4.77-11.54-14.11-16.3-26.09-14.85c-12.74,1.54-21.49,9.09-23.48,21.79c-1.1,7.02-5.17,6.1-8.74,5.11
	c-3.23-0.89-0.86-4.55-0.51-6.75c1.07-6.71,4.11-12.67,8.87-17.55c1.78-1.82,1.83-2.93,0.25-4.86
	c-11.12-13.57-25.32-19.15-42.38-15.06c-16.79,4.03-26.99,15.28-30.81,32.09c-1.58,6.96-2.31,12.56,7.52,15.58
	c11.8,3.63,17.63,13.84,19.05,26.16c0.12,1.02,0.93,3.33-1.43,2.57c-2.54-0.82-6.67,2.85-7.6-2.02
	c-2.48-13.03-10.04-20.69-23.32-20.53c-12.9,0.15-21.07,7.72-22.15,20.53c-1.11,13.14,5.63,22.72,18.83,24.31
	c13.25,1.59,26.82,0.29,40.24,0.81c9.82,0.38,13.73,6.46,13.94,15.94c0.23,10.39-0.93,19.74-13.99,20.46
	c-10.26,0.56-20.58,0.14-30.87,0.1c-3.11-0.01-5.39,1.18-5.46,4.45c-0.08,3.44,2.21,4.73,5.47,4.73c13.15-0.03,26.3-0.18,39.45,0.05
	c9.26,0.16,14.3,5.26,14.42,14.51c0.2,15.63,0.14,31.26-0.03,46.88c-0.03,2.83,1.42,3.22,3.15,2.51c2.02-0.83,6.06,2.9,6.06-2.45
	c0.03-31.83-0.01-63.66,0.06-95.49c0-2.05-0.37-3.05-2.58-2.63c-5.08,0.97-7.39-0.41-6.76-6.27c0.63-5.91,4.64-2.59,6.7-2.69
	C283.14,120.67,292.21,120.91,301.26,120.91z M392.77,138.13c1.43-1.59,7.31,5.28,9.43-2.34c3.18-11.45,10.03-13.69,20.93-8.78
	c7.96,3.59,8.87-6.76,14.03-9.33c2.2-1.1,3.54-2.81,1.59-6.07c-6.26-10.49-2.5-16.6,8.51-21.22c8.14-3.42,1.32-12,3.29-17.94
	c0.93-2.83-1.18-3.22-3.39-3.78c-10.29-2.6-13.35-9.06-9.72-18.9c0.87-2.35,5-5.07,0.53-7.1c-5.89-2.68-6.12-14.96-16.94-9.41
	c-8.47,4.34-15.35,1.26-18.27-7.64c-3.74-11.39-12.44-2.9-18.41-5.23c-4.47-1.74-3.94,2.78-4.73,5.25c-2.76,8.61-9.16,10-16.99,8.66
	c-2.9-0.5-5.56-6.56-8.54-1.4c-3.37,5.83-16.05,6.92-8.65,18.77c3.61,5.79,0.11,14.02-6.55,15.66c-13.81,3.39-5.37,13.34-6.98,20.03
	c-1.25,5.19,4.82,2.87,7.34,4.39c5.87,3.54,9.53,10.88,6.65,14.91c-7.28,10.2,2.27,12.58,5.89,18.01c4.37,6.55,7.82,1.24,12.08,0
	c5.66-1.65,12.78,1.29,14.15,5.45C380.43,137.48,382.76,141.55,392.77,138.13z M211.81,251.74c-2.35-2.23,5.71-10.33-2.38-11.48
	c-10.39-1.48-23.04-2.43-23.96,13.25c-0.56,9.54,6.26,12.81,15.45,14.1C213.7,269.39,214.27,262.86,211.81,251.74z M267.42,249.03
	c8.39,0,16.78-0.14,25.16,0.08c2.77,0.07,2.99-1.5,2.33-3.04c-0.87-2.04,2.86-6.1-2.34-6.14c-15.25-0.12-30.5-0.2-45.74,0.15
	c-2.08,0.05-6.23-3.31-6.89,2.8c-0.65,6.11,2.05,6.53,6.9,6.26C253.68,248.75,260.56,249.03,267.42,249.03z M267.56,267.34
	c8.39,0,16.78-0.14,25.16,0.08c2.97,0.08,2.74-1.85,2.18-3.18c-0.83-1.99,2.81-5.95-2.18-6c-15.25-0.15-30.5-0.22-45.74,0.14
	c-2.15,0.05-6.39-3.37-7.05,2.94c-0.67,6.41,2.46,6.3,7.05,6.1C253.83,267.11,260.7,267.34,267.56,267.34z M303.72,252.94
	c0.46,4.33,0.87,8.19,1.28,12.05c8.86-3.76,17.73-7.53,26.59-11.29c-7.71-6.34-17.78-7.22-26.4-11.44
	C304.68,245.95,304.17,249.63,303.72,252.94z M230.95,253.61c0-1.52,0.52-3.32-0.1-4.52c-1.52-2.94,3.9-8.07-3.04-9.24
	c-9.22-1.56-5.59,5.32-5.91,9.19c-0.41,4.92,0.03,9.9-0.15,14.85c-0.09,2.49,0.22,4.25,3.18,3.39c2.22-0.64,6.61,2.56,6.08-3.39
	C230.7,260.49,230.95,257.04,230.95,253.61z"/>
<path fill="#E6E7E8" d="M382.05,166.67c-12.87,0-25.73,0.01-38.6-0.01c-5.58-0.01-1.72-4.16-2.58-6.23c-0.84-2.01,0.11-3,2.67-2.99
	c25.64,0.12,51.28,0.06,76.92,0.08c5.58,0,1.72,4.16,2.58,6.23c0.84,2.01-0.11,3.02-2.67,2.99
	C407.6,166.59,394.82,166.67,382.05,166.67z M420.7,203.36c2.77,0.04,2.99-1.5,2.33-3.04c-0.87-2.04,2.86-6.13-2.34-6.15
	c-25.83-0.09-51.66,0.01-77.49-0.12c-2.77-0.01-2.99,1.5-2.33,3.04c0.87,2.04-2.86,6.1,2.34,6.15c12.87,0.13,25.73,0.04,38.6,0.04
	C394.78,203.28,407.74,203.18,420.7,203.36z M361.65,175.74c-2.89-0.06-3.15,1.51-2.47,3.19c0.81,2.01-2.89,6.03,2.48,6.04
	c18.2,0.02,36.41,0.15,54.61-0.18c2.14-0.04,6.39,3.37,7.05-2.94c0.67-6.41-2.46-6.26-7.05-6.1c-8.38,0.29-16.77,0.08-25.16,0.08
	C381.28,175.82,371.46,175.96,361.65,175.74z M343.35,212.34c-2.89-0.06-3.16,1.51-2.48,3.19c0.81,2.01-2.89,6.03,2.47,6.04
	c18.2,0.02,36.41,0.15,54.61-0.18c2.14-0.04,6.39,3.37,7.05-2.94c0.67-6.4-2.45-6.27-7.05-6.11c-8.28,0.29-16.58,0.08-24.87,0.08
	C363.17,212.43,353.26,212.56,343.35,212.34z M363.92,240.03c-8.51-0.1-13.75,4.93-13.84,13.44c-0.09,8.52,5.06,13.65,13.57,13.71
	c8.46,0.06,12.75-5.27,13.86-13.44C376.57,245.55,372.38,240.14,363.92,240.03z M363.81,258.12c-2.9,0.07-4.68-1.64-4.67-4.55
	c0.01-2.76,1.72-4.44,4.48-4.47c2.79-0.03,4.23,1.73,4.64,4.4C367.98,256.23,366.59,258.05,363.81,258.12z M413.83,253.76
	c0.03-8.51-5.05-13.69-13.57-13.71c-8.37-0.02-13.46,5.05-13.58,13.42c-0.12,8.61,5.27,12.94,13.53,14.03
	C408.43,266.46,413.8,262.21,413.83,253.76z M404.76,253.47c0.06,2.9-1.68,4.67-4.58,4.65c-2.75-0.02-4.43-1.74-4.44-4.5
	c-0.01-2.8,1.75-4.22,4.43-4.61C402.89,249.3,404.71,250.69,404.76,253.47z M328.92,159.37c-8.88-10.61-9.93,3.33-14.96,4.82
	c-5.06,1.49-6.55,15.25-15.2,4.36c-2.02,1.67-4.08,3.3-6.02,5.07c-0.31,0.28-0.32,1.4-0.02,1.75c6.32,7.38,12.55,15.8,21.02,2.05
	c1.12-1.81,3.02-3.15,4.59-4.68c4.01-3.91,8.03-7.8,12.09-11.72C329.69,160.2,329.28,159.8,328.92,159.37z M305.97,221.72
	c7.38-7.42,14.7-14.92,22.26-22.17c2.09-2.01,1.82-3.38-0.29-4.45c-1.93-0.97-1.76-4.32-6.41-2.54c-8.45,3.23-7.92,23.55-23.46,12.4
	c-0.06-0.05-0.46,0.29-0.64,0.51c-1.73,2.01-5.19,5.45-4.89,5.82c3.51,4.31,7.59,8.15,11.95,12.55
	C305.09,222.96,305.44,222.25,305.97,221.72z M346.95,175.94c-2.12,0.53-6.75-2.94-6.05,2.87c0.26,2.16-2.87,6.74,3.15,6.17
	c2.87-0.27,7.45,1.74,5.04-6.84C349.32,178.72,351.58,174.78,346.95,175.94z M423.04,218.47c-0.54-2.13,2.75-6.76-3.03-5.92
	c-2.1,0.31-6.52-2.82-6.03,3.02c0.25,2.98-1.74,7.65,3.52,6.15C420.61,221.32,424.17,222.87,423.04,218.47z M391.08,120.91
	c22.6,0,41.11-18.4,41.2-40.94c0.09-22.75-18.33-41.35-41.01-41.41c-22.74-0.06-41.31,18.39-41.34,41.08
	C349.89,102.36,368.38,120.91,391.08,120.91z M423.13,79.72c0.01,17.69-14.53,32.14-32.23,32.04c-17.57-0.1-31.88-14.57-31.82-32.16
	c0.06-17.57,14.5-31.92,32.09-31.89C408.75,47.74,423.12,62.13,423.13,79.72z M391.33,57.11c-14.07-0.06-22.7,8.33-22.84,22.4
	c-0.14,14.08,8.33,22.63,22.39,22.86c14.22,0.22,21.47-8.65,23.34-22.4C412.62,66.19,405.56,57.17,391.33,57.11z M404.68,79.8
	c-0.07,8.37-5.14,13.48-13.5,13.5c-8.5,0.02-13.63-5.12-13.65-13.64c-0.02-8.46,5.33-12.72,13.51-13.81
	C399.36,66.88,404.74,71.2,404.68,79.8z"/>
</svg>
