<?xml version="1.0" encoding="utf-8"?>
<!-- Generator: Adobe Illustrator 27.9.0, SVG Export Plug-In . SVG Version: 6.00 Build 0)  -->
<svg version="1.1" baseProfile="tiny" id="Layer_1" xmlns="http://www.w3.org/2000/svg" xmlns:xlink="http://www.w3.org/1999/xlink"
	 x="0px" y="0px" viewBox="0 0 630 300" overflow="visible" xml:space="preserve">
<path fill="#E6E7E8" d="M378.25,134.59c-9.31,9.06-17.52,21.33-30.93,28.1c-1.06,0.53-4.86-1.82-5.43-3.5
	c-0.7-2.08-0.24-6.17,1.22-7.13c20.4-13.5,19.59-26.39-0.21-39.67c-1.41-0.94-1.76-5.09-0.99-7.14c0.64-1.7,3.57-3.29,5.65-3.55
	C351.67,101.2,378.35,128.49,378.25,134.59z M233.49,132.39c0.18,1.74,1.14,3.71,2.37,4.97c7.63,7.88,15.43,15.61,23.2,23.37
	c2.97,2.96,6.38,3.55,9.5,0.64c3.29-3.06,3.31-7.31-0.22-9.66c-20.04-13.33-19.38-26.06,0.19-39.19c1.49-1,2.03-4.97,1.41-7.1
	c-0.56-1.93-3.29-3.23-4.19-4.03C259.98,101.42,233.08,128.31,233.49,132.39z M319.43,105.01c-2.26-0.33-6.04,1.24-7.2,3.16
	c-8.34,13.83-16.34,27.88-23.99,42.11c-1.05,1.96-0.45,6.07,1.03,7.74c1.31,1.49,6.63,2.08,7.22,1.16
	c10.05-15.63,19.64-31.56,29.86-48.28C323.48,108.3,321.65,105.34,319.43,105.01z M447.51,218.79
	c-0.01-18.25-11.05-29.42-29.29-29.5c-18.25-0.08-29.36,11.03-29.52,29.26c-0.15,18.4,11.39,27.86,29.31,30.12
	C435.9,246.55,447.52,237.2,447.51,218.79z M418.49,202.25c10.16,0.26,16.29,6.63,16.04,16.76c-0.26,10.38-7,16.32-17.23,16.02
	c-10.04-0.3-15.04-6.91-15.9-16.75C402.78,208.25,408.27,201.99,418.49,202.25z"/>
<path fill="#F1F2F2" d="M186.01,37.42c-0.51,4.03-2.77,6.46-6.77,6.34c-3.8-0.12-6.24-2.56-6.23-6.41c0.02-3.98,2.36-6.48,6.49-6.46
	C183.65,30.92,185.63,33.45,186.01,37.42z M222.84,30.89c-3.93,0.15-6.18,2.55-6.2,6.36c-0.02,4.06,2.52,6.53,6.5,6.5
	c3.99-0.02,6.16-2.58,6.53-6.9C228.98,33.29,227.02,30.73,222.84,30.89z M172.15,11.18c-13.27,0.06-20.83,7.26-20.87,20.7
	c-0.17,54.39-0.11,108.78-0.04,163.17c0.01,10.9,5.88,16.56,16.66,16.61c28.09,0.13,56.18,0.03,84.27,0.08
	c1.11,0,2.21,0.52,3.32,0.79c-5.83,7.4,2.71,24.12-15.76,23.5c-9.67-0.32-18.72,3.99-22.44,12.75c-3.81,8.98-9.56,9.67-17.31,8.92
	c-4.86-0.47-9.51,0.44-9.42,6.58c0.1,6.1,4.81,6.49,9.64,6.48c53.11-0.05,106.23-0.01,159.34-0.08c2.63,0,3.58,0.37,4.3,3.42
	c2.94,12.5,14.86,14.86,24.22,19.46c6.52,3.21,11.51-3.36,17.14-5.36c7.87-2.8,20.61-3.89,25.98,0.6
	c13.81,11.55,22.66,1.8,32.91-3.61c8.15-4.3,8.78-11.07,7.95-20.09c-0.83-9.05,5.61-18.06,12.6-22.85
	c5.44-3.72,13.1-5.38,13.33-12.62c0.34-10.55,5.82-24.46-6.27-30.42c-9.05-4.46-11.82-11.84-17.19-18.3
	c-6.92-8.34,4.54-22.23-9.15-27.91c-3.57-1.48-4.84-3.78-4.82-7.88c0.2-37.54,0.24-75.07,0.05-112.61
	c-0.07-13.89-7.56-21.32-21.48-21.37c-44.3-0.13-88.61-0.05-132.91-0.05C261.52,11.1,216.84,10.97,172.15,11.18z M442.91,63.39
	c3.59-0.01,4.73,0.74,4.7,4.55c-0.19,23.24-0.01,46.48-0.13,69.72c-0.06,11.04-11.9,6.04-17.36,11.4
	c-4.26,4.17-17.95,4.91-25.93-1.12c-6.33-4.79-12.39-7.48-19.11-3.21c-9.38,5.96-24.16,8.21-20.98,24.62
	c2.04,10.52-11.76,29.07-22.7,29.09c-57.59,0.12-115.18,0.11-172.77,0.24c-3.41,0.01-4.36-1.2-4.35-4.47
	c0.08-42.4,0.1-84.79-0.03-127.19c-0.01-3.33,1.28-3.6,4-3.6c45.84,0.07,91.69,0.05,137.53,0.05
	C351.48,63.47,397.19,63.51,442.91,63.39z M423.32,164c7.58,1.24,13.08-1.22,19.14-6.53c4.85-4.24,9.59,4.05,14.76,5.91
	c1.01,0.36,2.01,3.37,1.58,4.67c-3.74,11.12,12.47,37.63,23.67,41.13c7.16,2.24,1.58,10.18,3.04,15.35
	c0.66,2.34-0.21,3.84-3.27,4.23c-11.27,1.45-27.76,29.46-23.45,40.02c2.06,5.06-1.97,5.92-4.42,6.56
	c-4.35,1.14-7.53,9.42-13.08,3.15c-7.07-7.99-39.47-8.43-46.06,0.01c-2.09,2.67-4.25,3.33-6.19,1c-3.49-4.19-13.89-2.22-11.42-11.18
	c3-10.88-12.65-38.03-23.95-39.58c-3.28-0.45-3.54-2.4-2.98-4.5c1.36-5.12-4-12.88,2.71-15.17c9.8-3.35,27.64-27.82,24.73-38.02
	c-3.78-13.25,10.59-8.62,13.7-17.92C399.61,169.79,412.61,162.26,423.32,164z M170.96,50.18c-2.15-0.01-7.7,2.73-6.41-2.87
	c1.8-7.77-6.81-22.37,6.72-22.54c89.7-1.12,179.44-1.11,269.14-0.01c13.59,0.17,5.06,14.71,6.85,22.48c1.29,5.59-4.2,2.95-6.39,2.96
	c-45.05,0.19-90.1,0.14-135.15,0.14C260.81,50.33,215.89,50.38,170.96,50.18z M283.85,235.97c-18.95,3.25-24.64-2.86-16.1-20.79
	c1.25-2.63,2.11-3.56,4.97-3.55c20.27,0.13,40.54,0.16,60.81-0.02c3.49-0.03,3.42,1.33,4.2,4.2c5.54,20.51-5.5,22.51-21.41,20.13
	c-4.86-0.73-9.93-0.11-14.9-0.11C295.55,235.82,289.54,234.99,283.85,235.97z M230.87,257.63c-1.16,0-2.32-0.41-3.48-0.63
	c0.68-1.06,1.22-2.24,2.05-3.16c3.53-3.87,8.09-4.91,13.16-4.9c37.01,0.05,74.01,0.11,111.02-0.06c5.68-0.03,5.08,5.16,7.67,7.64
	c-2.13,0.38-4.26,1.07-6.39,1.08c-20.29,0.08-40.58,0.05-60.87,0.05C272.98,257.66,251.93,257.67,230.87,257.63z M207.89,37.15
	c-0.4,3.97-2.47,6.59-6.51,6.62c-3.77,0.03-6.29-2.16-6.44-6.11c-0.15-4.07,2.02-6.56,6.13-6.75
	C205.24,30.71,207.24,33.28,207.89,37.15z"/>
</svg>
