<?xml version="1.0" encoding="utf-8"?>
<!-- Generator: Adobe Illustrator 27.9.0, SVG Export Plug-In . SVG Version: 6.00 Build 0)  -->
<svg version="1.1" baseProfile="tiny" id="Layer_1" xmlns="http://www.w3.org/2000/svg" xmlns:xlink="http://www.w3.org/1999/xlink"
	 x="0px" y="0px" viewBox="0 0 630 300" overflow="visible" xml:space="preserve">
<path fill="#E6E7E8" d="M315.02,46.67c22.78,0.03,45.6,0.73,68.31-0.54c4.83-0.27,1.1,8.82,7.78,3.92
	c9.22-6.77,10.38-14.11-0.34-16.12c-6.42-1.2-15.39,1.71-23.3,1.79c-30.82,0.31-61.65,0.52-92.47,0.55c-1.35,0-3.69-2.03-3.87-3.35
	c-0.46-3.39,2.47-3.32,4.84-3.31c33.71,0.15,67.42,0.34,101.13,0.4c1.31,0,3.54-0.94,3.78-1.85c0.8-3.09,0.9-6.36,1.27-9.57
	c3.15,2.35,6.1,5.07,9.49,6.98c19.46,10.96,18.01,21.52-0.55,31.58c-3.49,1.89-11.22,16.66-10.13-2.45
	c0.03-0.54-2.08-1.65-3.24-1.71c-3.89-0.22-7.81-0.12-11.71-0.07c-8.28,0.11-16.56,0.27-24.83,0.41
	c5.8,5.37,11.57,10.77,17.43,16.08c2.15,1.95,0.75,2.9-0.75,4.18c-7.52,6.39-14.98,12.85-22.49,19.26
	c-0.65,0.55-1.47,0.91-2.21,1.35c-0.4-0.89-1.29-1.88-1.13-2.65c2.06-9.78-4.06-8.9-10.6-8.85c-36.43,0.28-72.87,0.28-109.31,0.31
	c-2.1,0-4.69,0.64-4.64-3.27c0.05-3.94,2.53-3.22,4.77-3.21c40.99,0.11,81.98,0.5,122.96-0.02c3.93-0.05,0.1,7.85,6.56,3.55
	c12.97-8.63,5.79-13.65-2.2-18.53c-2.12-1.29-1.28,4.73-5.93,4.66c-35-0.48-70-0.27-105-0.48c-1.16-0.01-2.3-2.14-3.46-3.28
	c1.17-0.89,2.33-2.56,3.51-2.56c33.19-0.09,66.39-0.04,99.58,0.11c2.79,0.01,3.77-0.5,3.75-3.54c-0.02-3.02-0.99-3.6-3.8-3.58
	c-27.08,0.17-54.15,0.19-81.23,0.29c-2.42,0.01-4.3-0.03-4.32-3.36c-0.02-3.52,2.13-3.17,4.4-3.16
	C269.71,46.65,292.37,46.64,315.02,46.67z"/>
<path fill="#F1F2F2" d="M309.48,241.08c-22.38,0-44.81-0.82-67.1,0.61c-5.11,0.33-2.78-7.71-9.02-3.96
	c-14.03,8.44-5.84,13.66,1.88,18.73c3.51,2.31,0.35-4.81,5.54-4.71c36.04,0.65,72.1,0.36,108.15,0.35c2.24,0,4.03-0.04,4.05,3.17
	c0.02,3.69-2.53,2.24-4.03,2.24c-33.84,0.07-67.68,0.04-101.52,0.11c-1.52,0-4.33,0.64-4.39,1.22c-2.92,26.49-11.79,0.64-12.88,0.06
	c-11.7-6.21-20.11-14.24-2.39-24.01c1.55-0.85,2.87-3.27,4.19-3.2c3.7,0.21,11.37-19.89,11.16,1.91c0,0.46,1.69,1.29,2.61,1.33
	c4.29,0.18,8.59,0.25,12.88,0.17c8.51-0.15,17.03-0.43,25.54-0.65c-6.04-5.24-12.15-10.42-18.04-15.83
	c-0.65-0.6-0.63-3.13,0.03-3.74c5.23-4.83,10.48-9.68,16.15-13.96c3.83-2.89,11.13-14.8,9.87,2.7c-0.03,0.45,2.15,1.53,3.3,1.54
	c38.66,0.09,77.31,0.07,115.97,0.11c2.16,0,4.86-0.82,4.81,3.15c-0.05,4.02-2.91,2.19-4.41,2.19c-40.48,0.11-80.96-0.35-121.42,0.68
	c-4.52,0.12-1.33-8.41-7.99-3.6c-10.68,7.72-8.1,11.93,0.79,18.19c6.07,4.28,1.56-4.26,6.69-4.09c35.1,1.14,70.26,0.6,105.4,0.58
	c2.14,0,3.68-0.02,3.75,2.96c0.08,3.48-2.17,2.51-3.88,2.52c-33.06,0.03-66.12,0.05-99.18-0.03c-2.87-0.01-4.16,0.47-4.17,3.79
	c-0.01,3.29,1.45,3.44,4.01,3.44c27.07,0,54.14,0.11,81.21,0.16c2.12,0,4.67-0.33,3.81,2.94c-0.26,1-2.27,2.19-3.49,2.2
	c-22.63,0.13-45.27,0.1-67.9,0.1C309.48,240.67,309.48,240.88,309.48,241.08z"/>
<path fill="#D1D3D4" d="M273.06,120.99c-11.46-7.95-4.63-13.74,2.17-20.75c5.3-5.47,8.55-5.35,14.16-0.65
	c5.1,4.28,9.28,1.19,12.12-4.33c1.66-3.23-2.12-10.81,4.85-9.35c7.41,1.55,19.91-8.33,21.68,8.8c0.75,7.26,7.29,9.32,12.32,4.67
	c10.52-9.72,12.45,2.91,17.86,6.01c6.75,3.87,4.75,8.32,0.21,12.86c-1.14,1.14-2,3.84-1.43,5.14c1.45,3.32,1.69,7.84,7.47,7.85
	c2.68,0,9.37-1.5,7.58,4.02c-2.22,6.89,8.48,18.1-6.58,20.85c-2.44,0.45-5.47,1.65-6.74,3.52c-2.03,2.99-3.56,6.52-0.11,10.34
	c2.04,2.26,7.55,6.05,2.41,8.72c-6.48,3.37-7.49,19.21-20.1,9.39c-6.77-5.27-10.93-2.03-13.69,4.83c-1.24,3.09,1.76,10.29-5.13,8.06
	c-6.75-2.18-18.26,8.62-20.41-7.67c-1.06-8.03-6.77-9.96-14.07-4.66c-1.93,1.4-5.03,7.1-7.44,2.14c-3.31-6.8-19.32-7.11-10.6-19.89
	c5.06-7.41,4.01-12.56-5.18-14.17c-15.75-2.75-4.53-14.99-7.69-22.24c-1.6-3.68,4.96-3.45,7.95-3.55
	C270.99,130.72,270.74,125.53,273.06,120.99z M282.19,100.78c-3.12,3.87-5.79,6.72-7.79,9.99c-0.54,0.88,0.51,3.58,1.62,4.47
	c8.21,6.67-0.6,12.23-1.36,18.2c-0.16,1.27-4.51,2.26-7.04,2.92c-2.27,0.59-5.98-0.14-4.99,3.51c0.98,3.63-4.36,9.36,3.97,10.94
	c12.04,2.27,14.78,10.01,9.69,20.57c-1.3,2.7-4.06,4.83-0.34,7.29c3.07,2.02,3.85,7.9,10.56,3.53c8.94-5.84,16.84-2.83,20.33,8.03
	c0.98,3.04,0.63,6.47,5.84,5.79c4.58-0.59,8.21,0.67,10.04-6.29c2.69-10.25,10.94-13.6,20.03-7.14c4.94,3.51,6.45,0.56,8.86-1.95
	c2.21-2.3,5.5-3.4,2.08-8.45c-6.75-9.98-3.51-18.25,8.42-20.87c8.06-1.77,3.85-7.17,4.75-11.03c0.94-4.02-2.18-3.26-4.69-3.98
	c-11.58-3.3-15.27-10.76-8.56-21.05c3.9-5.98-1.83-6.86-3.53-9.83c-1.79-3.13-3.85-2.52-6.96-0.79c-11.32,6.29-18.9,3.38-21.66-9.9
	c-0.26-1.25-2.09-2.56-3.48-3.14c-13.62-5.68-8.36,11.45-16.64,13.86C294.02,107.59,288.25,109.94,282.19,100.78z M219.81,179.54
	c0.36,12.48,9.54,7.01,15.5,7.91c7.45,1.13,4.12-5.5,6.13-8.28c1.22-1.69,4.52-2.67,6.81-2.56c1.83,0.09,3.44,3.15,5.35,3.42
	c5.92,0.82,10.63-6.54,10.33-7.91c-3.05-14.07-5.45,2.14-8.67,0.5c-0.36-0.19-1.06,0.24-1.39,0.04c-10.04-6.15-16.5-3.95-19.14,7.93
	c-0.14,0.63-2.38,1.2-3.59,1.1c-1.57-0.12-4.18-0.61-4.45-1.5c-3.16-10.5-8.72-14.29-18.92-7.86c-0.7,0.44-3.05-1.11-4.2-2.2
	c-0.89-0.85-1.9-2.9-1.49-3.59c6.05-10.06,2.83-15.93-7.91-19.09c-0.9-0.27-1.16-3.37-1.34-5.19c-0.09-0.86,0.58-2.49,1.15-2.6
	c11.65-2.38,13.84-8.62,8.25-18.71c-0.51-0.91,1.56-3.54,2.83-5.03c0.57-0.67,2.49-1.09,3.17-0.65c9.22,5.96,14.81,2.75,18.17-6.83
	c0.34-0.97,1.47-2.27,2.31-2.34c1.98-0.15,5.74,0.25,5.77,0.63c1.43,20.65,23.52,1.93,28.65,15.11c0.85-0.86,2.01-1.58,2.47-2.62
	c0.38-0.86,0.36-2.62-0.21-3.06c-5.02-3.93-7.97-14.73-17.4-5.41c-0.69,0.68-6.47-1.77-6.46-2.73c0.16-13.79-10.32-7.42-16.3-8.5
	c-6.45-1.16-3.29,5.57-5.39,8c-1.49,1.73-4.86,3.76-6.38,3.15c-3.91-1.56-7.07-6.98-11.42-0.83c-3.45,4.87-13.03,8.08-4.47,16.52
	c0.65,0.64-1.21,5.32-2.99,6.58c-2.61,1.85-8.93-1.15-7.9,5.43c0.93,5.94-5.16,15.42,7.78,16.19c3.74,0.22,5.37,4.61,2.54,7.61
	c-4.96,5.25-1.99,7.98,1.67,12.17c5.32,6.1,9.94,8.39,15.71,0.62C216.63,176.79,219.77,178.12,219.81,179.54z M426.82,169.75
	c-4.35,9.06-8.85-0.41-13.2-0.43c-9.63-0.06-7.43,12.29-15.88,12.59c-7.71,0.28-2.59-6.86-6.43-9.73
	c-7.79-5.82-19.07,5.74-24.73-5.98c-1.01,0.73-2.13,1.35-2.97,2.24c-0.34,0.36-0.31,1.74-0.02,1.91c5.42,3.11,7.79,15.72,17.71,5.73
	c0.7-0.71,4.8,1.08,6.62,2.57c2.57,2.1-2.08,9.02,4.58,8.46c6.45-0.54,16.67,5.08,16.97-8.6c0.02-0.86,5.6-3.01,6.43-2.23
	c10.22,9.46,12.82-2.62,17.76-6.42c4.93-3.79-2.9-5.4-2.56-8.38c0.29-2.6,1.93-7.2,3.05-7.22c13.57-0.26,6.46-10.35,7.61-16.03
	c1.39-6.84-5.64-2.79-7.73-5.04c-1.65-1.77-3.64-6.05-2.97-6.72c9.36-9.45-1.49-12.51-5.41-17.43c-4.47-5.6-6.33,2.1-9.54,2.23
	c-2.26,0.09-4.98-1.21-6.82-2.71c-2.62-2.15,1.91-9.11-4.56-8.58c-6.42,0.52-16.81-5.35-17.07,8.56c-0.02,0.9-5.83,3.14-6.65,2.35
	c-9.99-9.56-12.12,3.31-17.73,5.9c0.6,1.29,0.99,2.8,1.92,3.78c0.38,0.4,1.99-0.21,2.97-0.55c3.11-1.08,3.26-7.52,8.65-4.6
	c8.39,4.54,14.2,2.56,17.15-6.9c0.41-1.32,2.13-2.84,3.49-3.13c2.44-0.52,4.84-0.65,5.9,3.07c2.7,9.4,8.74,12.01,17.13,6.57
	c3.93-2.55,4.14,1.56,5.88,2.68c0.86,0.55,1.47,3.36,0.95,3.86c-3.42,3.27-1.61,6.54-1.64,10.35c-0.07,8.6,19,8.39,9.91,14.9
	c-9.61,6.88-13.28,10.62-7.45,21.18C427.89,168.31,427.2,168.96,426.82,169.75z M211.18,144.38c1.06-12.52,7.44-19.95,19.57-19.97
	c11.98-0.02,19.16,7.31,19.08,19.27c-0.08,11.66-7.07,19-18.87,19.14C219.05,162.96,212.5,155.93,211.18,144.38z M217.39,144.07
	c1.17,7.31,5.08,12.57,13.36,12.64c8.42,0.07,12.96-5.31,13.06-13.16c0.1-8.19-5.58-13.02-13.28-13.06
	C222.81,130.46,218.4,135.67,217.39,144.07z M398.49,162.63c-12.15-1.07-19.6-7.48-18.82-19.94c0.75-11.97,8.36-18.7,20.6-17.77
	c11.27,0.86,17.53,8.27,17.2,19.2C417.14,155.38,410.38,161.91,398.49,162.63z M412.37,143.33c-1.17-7.49-5.09-12.76-13.32-13
	c-8.69-0.26-13.64,4.94-13.96,13.19c-0.33,8.54,5.13,13.62,13.4,13.71C406.89,157.31,411.21,151.74,412.37,143.33z M313.79,175.51
	c-17.22-0.03-32.04-14.68-31-32.39c1.13-19.3,12.23-30.41,31.77-31.21c17.5-0.72,31.99,14.27,32.02,31.87
	C346.6,161.36,331.95,175.54,313.79,175.51z M288.4,143.29c1.49,16.29,10.27,26.2,25.97,26.41c15.95,0.22,26.18-9.76,26.23-25.72
	c0.05-15.83-9.49-26.02-25.86-26.06C298.54,117.89,290.27,127.87,288.4,143.29z M315.06,162.65c-11.92-1.47-19.39-7.18-19.1-19.26
	c0.28-11.61,7.23-18.52,18.84-18.42c11.72,0.1,18.51,7.1,18.42,18.91C333.13,155.59,325.81,161.16,315.06,162.65z M314.81,156.99
	c7.85-1.04,12.85-5.22,12.94-13.19c0.09-8.24-5.17-13.25-13.01-13.29c-7.83-0.05-13.15,4.85-13.13,13.12
	C301.63,151.92,306.96,155.89,314.81,156.99z"/>
</svg>
