<?xml version="1.0" encoding="utf-8"?>
<!-- Generator: Adobe Illustrator 27.9.0, SVG Export Plug-In . SVG Version: 6.00 Build 0)  -->
<svg version="1.1" baseProfile="tiny" id="Layer_1" xmlns="http://www.w3.org/2000/svg" xmlns:xlink="http://www.w3.org/1999/xlink"
	 x="0px" y="0px" viewBox="0 0 630 300" overflow="visible" xml:space="preserve">
<path fill="#F1F2F2" d="M428.91,290.81c-75.62,0-151.25,0-226.87,0c-13.37-2.26-24.29-9.33-25.53-22.9
	c-1.6-17.67-6.87-36.99,9.24-51.85c1.11-1.03,1.42-1.49,0.13-2.66c-15.53-14.04-15.57-53.8-0.17-67.69
	c0.46-0.42,0.77-1.81,0.48-2.14c-12.53-14.21-15.7-46.52-5.93-62.3c11.62-18.77,23.37-37.46,34.98-56.24
	c6.31-10.21,15.33-15.13,27.31-15.12c46.12,0.06,92.25,0.59,138.36-0.26c18.06-0.33,30.61,5.54,38.89,21.75
	c11.14,21.8,28.8,39.95,35.98,64.02c0,8.78,0,17.56,0,26.35c-0.15,0.92-0.31,1.84-0.46,2.75c-0.92,7.48-4.26,13.67-10.03,18.49
	c-1.28,1.07-1.49,1.63-0.06,2.82c5.84,4.87,9.23,11.14,10.13,18.72c0.14,0.74,0.28,1.48,0.42,2.22c0,8.42,0,16.83,0,25.25
	c-0.15,0.92-0.31,1.84-0.46,2.75c-0.92,7.48-4.26,13.67-10.03,18.49c-1.28,1.07-1.49,1.63-0.06,2.82
	c5.84,4.87,9.23,11.14,10.13,18.72c0.14,0.74,0.28,1.48,0.42,2.22c0,8.96,0,17.93,0,26.89C453.15,279.24,444.2,288.2,428.91,290.81z
	 M315.6,220.56c-30.32,0-60.64,0-90.96,0c-37.84,0-37.81,0-37.82,37.86c0,13.89,6.84,20.74,20.7,20.74
	c65.94-0.02,131.87-0.01,197.81-0.01c38.94,0,39.11-0.1,38.72-39.12c-0.12-12.62-6.74-19.38-19.42-19.42
	C388.3,220.49,351.95,220.56,315.6,220.56z M315.41,138.42c30.23,0,60.45,0,90.68,0c38.12,0,38.16,0,38-38.31
	c-0.06-13.31-6.84-20.07-20.2-20.07c-66.11,0-132.23,0-198.34,0c-38.9,0-39.09,0.1-38.65,39.15c0.14,12.4,6.48,19.21,19.21,19.22
	C242.54,138.44,278.97,138.42,315.41,138.42z M315.34,208.69c30.14,0,60.28,0,90.42,0c38.43,0,38.48,0,38.32-38.52
	c-0.05-13.03-6.74-19.84-19.83-19.85c-66.21-0.04-132.43-0.02-198.64-0.02c-38.95,0-39.04,0-38.71,39.08
	c0.1,12.38,6.38,19.27,19.12,19.29C242.45,208.71,278.89,208.68,315.34,208.69z M315.51,68.34c36.97,0,73.95,0,110.92-0.01
	c0.67,0,1.34-0.21,2.01-0.33c-0.29-0.65-0.51-1.35-0.88-1.95c-7.36-11.88-14.76-23.74-22.11-35.63c-3.8-6.15-9.35-8.97-16.48-8.97
	c-49.03,0.01-98.05,0.01-147.08,0c-6.67,0-12.19,2.38-15.82,8.13c-7.7,12.2-15.26,24.5-22.91,36.74c-0.98,1.56-0.97,2.06,1.14,2.05
	C241.38,68.33,278.45,68.35,315.51,68.34z"/>
<path fill="#E6E7E8" d="M368.07,232.22c14.88,0,29.75,0.02,44.63-0.01c4.19-0.01,7.82,1.11,7.8,5.97c-0.02,4.68-3.56,5.84-7.65,5.84
	c-29.85-0.02-59.69-0.02-89.54,0c-4.09,0-7.63-1.15-7.66-5.83c-0.03-4.86,3.6-5.99,7.79-5.98
	C338.32,232.24,353.2,232.22,368.07,232.22z M413.26,267.37c4.13,0.01,7.29-1.45,7.26-5.91c-0.03-4.29-3.14-5.79-7.14-5.79
	c-30.21,0.02-60.42,0.02-90.62,0c-4,0-7.09,1.51-7.13,5.8c-0.04,4.28,2.94,5.9,7,5.89c15.15-0.03,30.3-0.01,45.45-0.01
	C383.14,267.35,398.2,267.32,413.26,267.37z M233.36,249.86c-0.03-10.73-6.46-17.27-17.17-17.3c-10.83-0.03-17.34,6.47-17.34,17.38
	c0,10.87,6.81,16.27,17.26,17.54C226.65,266.18,233.4,260.68,233.36,249.86z M216.05,255.52c-3.46-0.01-5.68-2.25-5.63-5.73
	c0.05-3.42,2.14-5.65,5.72-5.62c3.58,0.02,5.29,2.29,5.72,5.46C221.5,253.41,219.49,255.53,216.05,255.52z M323.42,91.7
	c-4.2-0.01-7.82,1.13-7.77,6c0.04,4.68,3.59,5.82,7.68,5.82c29.85-0.02,59.69-0.02,89.54,0c4.1,0,7.61-1.17,7.64-5.86
	c0.03-4.68-3.43-5.95-7.55-5.95c-14.97,0.02-29.94,0.01-44.91,0.01C353.18,91.71,338.3,91.73,323.42,91.7z M413.63,126.85
	c3.94,0.01,6.84-1.59,6.89-5.72c0.06-4.3-2.93-5.95-6.96-5.95c-30.3,0-60.6,0-90.9,0c-4.02,0-7.05,1.59-7.03,5.89
	c0.02,4.3,3.06,5.81,7.09,5.8c15.06-0.04,30.12-0.02,45.18-0.02C383.15,126.84,398.39,126.83,413.63,126.85z M233.36,109.46
	c0.02-10.87-6.47-17.45-17.32-17.42c-10.68,0.03-17.14,6.49-17.19,17.27c-0.05,10.87,6.7,16.31,17.14,17.66
	C226.54,125.75,233.34,120.29,233.36,109.46z M221.75,109.25c0.05,3.59-2.16,5.68-5.58,5.76c-3.48,0.08-5.71-2.14-5.75-5.61
	c-0.04-3.45,2.1-5.45,5.63-5.85C219.47,103.92,221.69,105.68,221.75,109.25z M323.42,161.95c-4.2-0.01-7.82,1.13-7.79,5.98
	c0.03,4.67,3.55,5.84,7.65,5.84c29.86-0.02,59.72-0.02,89.58,0c4.1,0,7.62-1.18,7.65-5.84c0.03-4.85-3.59-5.98-7.79-5.97
	c-14.88,0.03-29.77,0.01-44.65,0.01C353.19,161.97,338.3,161.99,323.42,161.95z M413.24,197.12c4.13,0.02,7.32-1.42,7.29-5.88
	c-0.03-4.46-3.27-5.84-7.36-5.83c-30.04,0.03-60.08,0.03-90.12,0c-4.08,0-7.37,1.31-7.42,5.77c-0.05,4.64,3.28,5.96,7.5,5.95
	c14.97-0.07,29.95-0.03,44.92-0.03C383.11,197.1,398.18,197.07,413.24,197.12z M233.44,179.63c-0.01-10.82-6.61-17.46-17.41-17.41
	c-10.61,0.05-17.17,6.5-17.22,17.29c-0.05,10.99,6.76,16.48,17.26,17.73C226.74,196.01,233.45,190.36,233.44,179.63z M216.09,185.26
	c-3.47,0.01-5.7-2.21-5.67-5.69c0.03-3.42,2.1-5.67,5.68-5.66c3.56,0.01,5.34,2.21,5.75,5.55
	C221.52,183.12,219.53,185.25,216.09,185.26z"/>
</svg>
