<?xml version="1.0" encoding="utf-8"?>
<!-- Generator: Adobe Illustrator 27.9.0, SVG Export Plug-In . SVG Version: 6.00 Build 0)  -->
<svg version="1.1" baseProfile="tiny" id="Layer_1" xmlns="http://www.w3.org/2000/svg" xmlns:xlink="http://www.w3.org/1999/xlink"
	 x="0px" y="0px" viewBox="0 0 630 300" overflow="visible" xml:space="preserve">
<path fill="#F1F2F2" d="M455.52,137.28c0,33.26-0.02,66.53,0.02,99.79c0.01,6.86-2.91,11.65-9.3,14.34
	c-3.42,1.44-5.18,4.49-3.91,7.74c2.71,6.96,1.74,12.64-3.48,18.05c-5.54,5.75-11.47,7.6-19.07,4.4c-2.79-1.17-5.98,0.21-7.16,3.01
	c-2.91,6.87-7.66,10.17-15.2,10.32c-8,0.16-13.57-2.7-16.62-10.34c-0.49-1.23-2.84-2.95-3.58-2.65c-10.76,4.46-19.14-4.88-28.7-4.98
	c-46.73-0.5-93.48-0.22-140.21-0.23c-19.84,0-34.42-14.96-33.17-34c1.23-18.65,18.03-31.51,37.52-28.87
	c0.91,0.12,2.48-0.85,2.93-1.73c8.23-15.86,21.21-24.43,38.99-25.91c1.16-0.1,2.63-0.88,3.31-1.81
	c10.35-14.22,24.13-22.66,41.63-24.77c2.44-0.29,2.22-1.57,2.22-3.21c-0.02-39.29-0.02-78.59-0.01-117.88
	c0-14.69,9.5-24.2,24.19-24.2c35.24-0.01,70.48-0.01,105.73,0c14.28,0,23.87,9.62,23.88,23.95
	C455.53,71.32,455.52,104.3,455.52,137.28z M276.3,267.71c22.52,0,45.06-0.51,67.55,0.26c8.46,0.29,5.75-6.02,7.27-9.4
	c1.31-2.91-0.88-5.96-4.42-7.38c-5.13-2.07-8.19-6.04-8.7-11.55c-0.63-6.64-0.73-14.17,6.17-17.18c13.87-6.06,7.71-20.57,5.89-25.51
	c-12.1-32.89-59.63-38.64-81.73-11.25c-1.09,1.35-1.42,1.82,0.71,2.43c9.6,2.77,17.49,8.18,23.53,16.17
	c0.66,0.88,2.41,2.26,0.09,2.92c-2.49,0.71-4.17,6.01-7.12,2.51c-9.61-11.37-21.5-16.52-36.07-13.61
	c-14.42,2.88-23.83,11.98-27.87,26.13c-1.05,3.69-2.08,3.89-5.3,2.44c-9.37-4.21-18.18-2.78-25.47,4.44
	c-6.94,6.87-8.71,15.37-4.97,24.42c3.92,9.49,11.49,14.1,21.74,14.12C230.5,267.74,253.4,267.71,276.3,267.71z M446.47,127.53
	c0-29.96,0.09-59.93-0.06-89.89c-0.04-8.7-4.87-14.05-13.59-14.1c-36.18-0.24-72.36-0.21-108.54-0.02
	c-7.87,0.04-13.27,4.76-13.33,12.56c-0.34,40.51-0.3,81.03,0.02,121.55c0.03,3.99,5.26,1.25,7.64,2.82c0.4-0.84,1.15-1.69,1.15-2.53
	c0.06-38.35,0.05-76.7,0.05-115.05c0-6.96,3.5-10.39,10.45-10.39c32.13,0.01,64.26,0.03,96.39-0.02c7.41-0.01,10.8,3.58,10.8,10.93
	c-0.04,48.05-0.26,96.11,0.17,144.16c0.09,9.69,9.55,18.11,5.04,29c-0.31,0.75,2.16,2.65,3.34,4.02c0.16-1.43,0.45-2.86,0.45-4.28
	C446.48,186.7,446.47,157.12,446.47,127.53z M366.18,197.53c-3.69,2.65-9.08,4.24-6.99,10.77c3.03,9.46,0.3,16.44-8.63,20.72
	c-3.02,1.44-3.68,3.6-3.64,6.57c0.04,3.1,0.06,5.79,3.59,7.45c8.96,4.21,11.9,11.29,8.62,20.65c-1.05,2.98-0.23,5,1.86,7.03
	c2.27,2.21,4.23,4.3,8.03,2.93c9.34-3.37,16.4-0.39,20.68,8.54c1.45,3.02,3.6,3.68,6.57,3.64c3.11-0.04,5.8-0.07,7.46-3.59
	c4.21-8.96,11.29-11.91,20.65-8.62c3.14,1.1,5.16,0.07,7.24-2.06c2.19-2.23,4.03-4.2,2.72-7.83c-3.37-9.34-0.39-16.4,8.54-20.68
	c3.02-1.45,3.68-3.61,3.64-6.57c-0.04-3.1-0.07-5.79-3.6-7.45c-8.95-4.22-11.91-11.29-8.61-20.66c1.11-3.14,0.06-5.16-2.06-7.24
	c-2.23-2.18-4.19-4.03-7.83-2.72c-9.34,3.37-16.16,0.27-20.79-8.49c-3.09-5.84-10.1-5.45-12.17-1.98
	C385.31,198.26,378.1,202.55,366.18,197.53z M378.7,150.1c-15.06,0-30.13-0.02-45.19,0.03c-1.54,0.01-4.43,0.44-4.43,0.7
	c-0.04,4.42-0.46,12.5,0.61,12.71c17.54,3.47,20.55,29.63,42.27,26.69c4.25-0.58,7.67,0.15,9.66-4.39
	c2.22-5.06,6.18-8.05,11.68-8.53c6.77-0.59,14.38-0.53,17.2,6.58c3.98,10.03,10.88,5.82,16.95,4.56c0.9-0.19,0.84-6.01,0.88-9.23
	c0.11-8.85-0.03-17.7,0.09-26.55c0.03-2.05-0.41-2.65-2.57-2.64C410.14,150.15,394.42,150.1,378.7,150.1z M378.33,68.67
	c9.05,0,18.09,0,27.14,0c22.91,0,22.81,0,23.01-22.89c0.03-3.57-0.77-4.37-4.34-4.35c-24.12,0.19-48.24,0.1-72.36,0.1
	c-22.91,0-22.81,0-23.01,22.89c-0.03,3.57,0.76,4.4,4.34,4.35C348.18,68.53,363.25,68.67,378.33,68.67z M378.6,104.86
	c8.95,0,17.9,0,26.85,0c22.92,0,22.83,0,23.02-22.88c0.03-3.55-0.74-4.38-4.33-4.36c-24.12,0.19-48.24,0.1-72.36,0.1
	c-22.92,0-22.83,0-23.02,22.88c-0.03,3.55,0.74,4.42,4.33,4.36C348.26,104.72,363.43,104.86,378.6,104.86z M378.33,141.05
	c9.05,0,18.09,0,27.14,0c22.91,0,22.82,0,23.01-22.89c0.03-3.57-0.76-4.38-4.34-4.35c-24.12,0.19-48.24,0.1-72.36,0.1
	c-22.91,0-22.82,0-23.01,22.89c-0.03,3.57,0.76,4.41,4.34,4.35C348.17,140.91,363.25,141.05,378.33,141.05z"/>
<path fill="#E6E7E8" d="M206.72,156.82c0-8.57,0.32-17.16-0.09-25.71c-0.38-8.01-1.14-15.41,10.92-12.85c2.47,0.52,3.36-2,2.17-4.4
	c-4.85-9.75-9.7-19.5-14.68-29.19c-0.51-1-1.89-2.15-2.86-2.15c-0.97,0.01-2.32,1.18-2.84,2.18c-4.94,9.61-9.8,19.26-14.56,28.96
	c-1.78,3.62,0.26,5.25,3.55,4.68c7.93-1.39,9.82,1.5,9.57,9.43c-0.66,21.65-0.25,43.33-0.22,65c0.01,5.17-3.77,1.79-5.69,2.45
	c-1.55,0.54-3.48,0.82-3.46-2.42c0.17-20.91,0.05-41.83,0.13-62.74c0.01-2.03-0.51-2.34-2.52-2.71c-9.55-1.78-13.52-7.8-9.76-16.78
	c4.42-10.54,10.03-20.59,15.22-30.8c2.14-4.2,5.72-6.47,10.45-6.52c4.87-0.05,8.53,2.25,10.72,6.55
	c5.16,10.13,10.56,20.16,15.16,30.55c3.62,8.17,0.54,14.56-8.13,16.65c-3.83,0.93-4.15,2.15-4.13,5.39
	c0.14,19.88-0.08,39.76,0.16,59.63c0.07,5.92-3.94,2.61-6.12,3.27c-3.04,0.92-3.09-1.08-3.07-3.41
	C206.77,180.18,206.72,168.5,206.72,156.82z M261.09,25.99c0.05-2.85-1.49-3.12-3.15-2.45c-1.99,0.81-5.97-2.86-5.97,2.45
	c-0.02,20.91-0.01,41.83-0.01,62.74c0,1.37,0.31,2.34-1.93,2.68c-10.11,1.52-14.13,7.65-10.18,17.07
	c4.35,10.37,9.9,20.24,14.98,30.3c2.18,4.31,5.74,6.72,10.6,6.76c4.98,0.04,8.61-2.39,10.84-6.81c5.03-9.98,10.52-19.78,14.87-30.06
	c4.05-9.55,0.09-15.71-10.19-17.26c-2.04-0.31-1.85-1.14-1.85-2.47c0.01-20.91-0.04-41.83,0.08-62.74c0.01-2.51-0.94-3.48-2.95-2.65
	c-2.05,0.85-6.16-2.96-6.16,2.54c-0.02,21.57,0.43,43.16-0.24,64.72c-0.25,7.95,1.41,11.12,9.65,9.65c3.67-0.66,5.12,1.43,3.34,5
	c-4.74,9.5-9.45,19-14.31,28.43c-0.56,1.08-1.93,2.26-3.03,2.37c-0.87,0.09-2.29-1.19-2.81-2.2c-4.94-9.61-9.74-19.29-14.59-28.94
	c-1.15-2.3-0.57-5.08,1.88-4.56c13.33,2.83,11.24-6.02,11.09-13.79c-0.16-8.29-0.04-16.58-0.04-24.87
	C261.01,49.91,260.89,37.95,261.09,25.99z M296.74,179.49c-0.79,6.41,2.96,7.27,9.24,7.1c14.69-0.4,24.73,7.37,30.24,21.03
	c2.06,5.11,5.21,0.4,7.79,0.48c2.69,0.08,1.08-2.16,0.71-3.28c-5.43-16.38-20.99-27.51-41.04-27.58
	C302.81,177.49,296.9,178.14,296.74,179.49z M230.82,222.9c-0.34,1.02,0.12,2.3,0.21,3.46c2.74-0.89,6.4,4.15,8.29-0.75
	c4.59-11.85,19.14-16.51,28.34-7.98c5.13,4.75,6.61-0.4,9.63-1.72c-1.2-1.79-2.1-3.93-3.66-5.31c-4.84-4.27-10.69-6.13-17.11-6.23
	C244.87,204.4,234.45,211.85,230.82,222.9z M428.37,236.06c0.01-17.4-14.18-31.63-31.57-31.67c-17.5-0.04-31.8,14.27-31.75,31.78
	c0.06,17.37,14.33,31.57,31.71,31.54C414.15,267.67,428.36,253.45,428.37,236.06z M396.73,213.67c13.93,0.07,22.35,8.48,22.34,22.39
	c-0.01,13.91-8.45,22.3-22.38,22.36c-14.04,0.05-21.15-8.77-22.83-22.4C375.57,222.41,382.67,213.6,396.73,213.67z M401.42,164.87
	c1.41,4.72-2.86,3.07-5.86,3.36c-5.9,0.58-2.98-3.82-3.27-6.01c-0.76-5.73,3.78-2.44,5.89-2.98
	C402.55,158.12,400.95,161.67,401.42,164.87z M416.25,159.23c-2.1,0.55-6.69-2.72-5.85,3c0.31,2.08-2.79,6.45,2.98,5.97
	c2.94-0.25,7.56,1.72,6.65-1.47C418.98,161.7,420.67,158.08,416.25,159.23z M346.84,56.69c-0.52-2.1,2.91-6.67-2.83-5.99
	c-2.14,0.26-6.67-2.84-6.1,3.12c0.27,2.84-1.72,7.37,4.56,5.7C344.13,59.09,347.97,61.24,346.84,56.69z M358.85,59.51
	c2.16-0.49,6.87,2.89,6.08-3.03c-0.28-2.09,2.71-6.5-3.04-5.89c-2.74,0.29-7.41-1.94-5.46,5.37
	C356.79,56.55,354.15,60.59,358.85,59.51z M398.16,86.85c-2.1,0.54-6.69-2.72-5.85,2.99c0.31,2.08-2.79,6.45,2.98,5.97
	c2.94-0.25,7.56,1.72,6.08-3.48C400.98,89.26,402.51,85.74,398.16,86.85z M419.23,92.77c-0.53-2.1,2.78-6.65-2.96-5.9
	c-2.18,0.29-6.6-2.66-6.03,3.25c0.29,2.97-1.42,7.28,3.03,5.97C416.75,95.49,420.36,97.18,419.23,92.77z M343.95,123.06
	c-2.1,0.53-6.66-2.83-5.93,2.91c0.28,2.17-2.72,6.63,3.2,6.05c2.93-0.28,7.31,1.52,6.77-0.36
	C346.55,125.62,348.37,121.95,343.95,123.06z M364.95,128.98c-0.53-2.1,2.8-6.66-2.94-5.91c-2.17,0.28-6.61-2.69-6.04,3.23
	c0.29,2.95-1.47,7.3,2.58,6.11C362.43,131.64,366.07,133.41,364.95,128.98z M396.93,222.62c-8.42-0.07-13.57,4.93-13.62,13.34
	c-0.05,8.42,5.06,13.47,13.47,13.5c8.36,0.03,12.58-5.26,13.65-13.34C409.45,228.03,405.29,222.69,396.93,222.62z M401.16,235.96
	c0.02,2.87-1.72,4.59-4.58,4.53c-2.71-0.06-4.36-1.77-4.33-4.51c0.03-2.76,1.78-4.14,4.45-4.5
	C399.37,231.82,401.15,233.21,401.16,235.96z"/>
</svg>
