<?xml version="1.0" encoding="utf-8"?>
<!-- Generator: Adobe Illustrator 27.9.0, SVG Export Plug-In . SVG Version: 6.00 Build 0)  -->
<svg version="1.1" baseProfile="tiny" id="Layer_1" xmlns="http://www.w3.org/2000/svg" xmlns:xlink="http://www.w3.org/1999/xlink"
	 x="0px" y="0px" viewBox="0 0 630 300" overflow="visible" xml:space="preserve">
<path fill="#F1F2F2" d="M167.25,134.06c0-30.36-1.25-60.79,0.5-91.04c0.93-16.13,13.43-25.63,29.69-25.77
	c57.76-0.51,115.52-0.3,173.28-0.13c17.32,0.05,30.71,14.36,30.74,32.22c0.06,41.35,0,82.7,0.12,124.05c0,1.39,1.14,3.37,2.34,4.08
	c15.29,9.01,30.72,17.8,46.02,26.8c1.43,0.84,3.15,2.82,3.06,4.15c-0.09,1.34-2.08,2.91-3.59,3.72c-3.45,1.85-7.12,3.31-10.71,4.92
	c-24.99,11.23-24.99,11.23-9.76,33.89c0.71,1.06,1.42,2.12,2.13,3.18c15.62,23.11,15.62,23.09-8.96,37.13
	c-2.79,1.6-4.5,0.53-6.09-1.84c-9.05-13.53-18.22-26.98-27.21-40.56c-1.46-2.2-2.16-2.63-4.24-0.57
	c-8.47,8.4-17.09,16.66-25.81,24.81c-1.3,1.21-3.77,2.49-5.08,2.02c-1.32-0.48-2.71-3.15-2.61-4.77
	c0.98-15.26-5.27-19.41-20.85-18.91c-43.12,1.39-86.31,0.49-129.47,0.48c-20.93-0.01-34.09-13.18-34.09-34.07
	c0-27.92,0-55.84,0-83.76C166.87,134.06,167.06,134.06,167.25,134.06z M173.8,134.38c0,28.14-0.3,56.28,0.11,84.42
	c0.24,16.4,9.28,25.69,25.77,25.8c48.18,0.3,96.35,0.08,144.53,0.18c2.89,0.01,3.21-0.82,2.85-3.34c-3.32-23.4-6.54-46.81-9.8-70.22
	c-0.6-4.32-1.24-8.64-1.86-12.96c-1.23,4.34-2.85,8.61-3.62,13.03c-1.67,9.57-7.85,18.67-0.93,29.1c3.01,4.54-0.38,10.19-5.15,13.4
	c-4.68,3.15-9.75,3.15-14.38-0.08c-4.7-3.27-6.78-7.98-5.2-13.64c0.76-2.75,0.06-3.02-2.45-3c-14.28,0.11-28.57,0.1-42.85,0.01
	c-2.29-0.01-2.65,0.28-2.15,2.75c1.63,8.18-1.74,14.19-9.89,15.83c-8.06,1.62-14.12-2.34-15.32-10.61
	c-1.21-8.31,3.14-14.34,11.68-14.74c15.1-0.71,30.55-2.28,45.32,0c24.05,3.72,35.77-4.74,36.48-29c0.07-2.4,0.23-2.99-2.34-2.98
	c-27.39,0.08-54.79,0.01-82.18,0.11c-3.36,0.01-5.03-1.22-5.93-4.38c-6.35-22.28-12.73-44.55-19.24-66.78
	c-1.45-4.95-0.06-6.91,5.16-6.9c40.08,0.08,80.15-0.01,120.23,0.14c3.34,0.01,4.82-0.87,5.08-4.14
	c1.56-18.91,14.25-21.18,29.41-19.37c1.24,0.15,2.25,2.26,3.37,3.46c-1.32,1.23-2.89,3.7-3.92,3.49
	c-16.53-3.33-21.58,5.77-23.48,20.02c-1.27,9.53-3.07,19.43-7,28.09c-9.82,21.64-4.07,34.94,18.26,42.98
	c9.74,3.51,18.38,10.15,27.42,15.54c2.57,1.53,2.66,0.76,2.66-1.67c-0.06-39.65,0.2-79.3-0.16-118.95
	c-0.15-16.3-9.33-25.52-25.61-25.62c-56.38-0.31-112.77-0.32-169.15,0c-16.26,0.09-25.38,9.29-25.61,25.61
	C173.52,78.1,173.8,106.24,173.8,134.38z M342.23,150.34c-0.07,1.16-0.27,2.08-0.15,2.96c4.9,35.73,9.83,71.46,14.77,107.19
	c0.16,1.12,0.49,2.22,0.75,3.33c0.97-0.74,2.01-1.4,2.88-2.24c7.83-7.53,15.67-15.05,23.43-22.66c2.94-2.88,5.16-2.62,7.45,0.8
	c9.21,13.8,17.88,28.03,28.08,41.07c4.38,5.6,7.4-3.35,11.58-4.49c1.5-0.41,5.75-1.11,2.84-5.31
	c-9.31-13.47-18.26-27.19-27.55-40.68c-2.8-4.07-1.79-6.19,2.44-7.99c10.05-4.3,20.02-8.79,30.02-13.22
	c0.82-0.36,1.58-0.86,2.36-1.29c-0.75-0.55-1.45-1.19-2.25-1.65c-26.67-15.43-53.35-30.85-80.03-46.27
	C353.52,156.81,348.17,153.75,342.23,150.34z M301.54,86.96c-3.21,4.52-11.48-4.65-12.33,4.54c-0.34,3.67-5.67,11.48,3.4,12.69
	c11.34,1.51,23.64,2.63,21.52-14.99C314,88.03,306.34,87.76,301.54,86.96z M242.06,86.58c-8.88,1.18-12.83,1.71-16.79,2.24
	c3.46,4.77-0.59,13.95,8.04,15.33c5.99,0.96,12.28,0.02,18.44-0.13c0.05,0,0.18-0.96,0.1-1.44
	C250.43,94.22,251.76,83.11,242.06,86.58z M271.68,103.44c1.66-2.24,9.44,6.02,9.32-2.77c-0.05-3.98,5.55-11.48-3.43-12.72
	c-6.75-0.93-13.76-0.01-20.65,0.14c-0.05,0-0.22,0.78-0.11,1.14C258.92,96.37,255.33,108.62,271.68,103.44z M325.51,102.35
	c19.06,6.39,16.78-5.75,18.88-13.11c0.84-2.95-2.4-1.27-3.62-1.41c-11.34-1.25-22.98-1.89-20.84,14.81
	C320.47,106.88,326.65,102.95,325.51,102.35z M242.63,111.01c-3.52,0.53-7.04,1.06-10.56,1.6c3.69,5-0.62,14.46,8.27,16.22
	c5.08,1,10.56,0.04,15.86-0.1c0.04,0,0.2-0.81,0.07-1.16C253.67,120.59,258.52,107.3,242.63,111.01z M324.61,129.7
	c15.39,3.14,10.79-10.28,14.13-16.8c-1.21-0.46-2.39-1.1-3.65-1.36c-13.1-2.73-20.9,1.47-19.58,15.98
	C315.61,128.53,321.44,128.99,324.61,129.7z M299.64,110.86c-3.06,3.36-10.28-3.75-10.49,4.04c-0.12,4.41-4.93,11.67,3.07,13.97
	c13.75,3.95,18.5-3.72,17.8-16.01C309.98,112.02,303.4,111.55,299.64,110.86z M273.29,128.8c1.79-2.2,8.53,4.15,7.92-2.89
	c-0.4-4.61,5.35-12.09-3.43-14.08c-5.24-1.19-10.99-0.15-16.51-0.06c-0.12,0-0.43,0.78-0.3,0.98
	C264.42,118.46,257.7,131.42,273.29,128.8z M323.49,135.69c-13.17-3.34-10.79,7.19-12.16,13.83c-0.66,3.17,2.35,1.3,3.62,1.59
	c11.47,2.61,17.7-1.88,17.42-13.81C332.35,136.69,326.58,136.22,323.49,135.69z M248.69,135.61c-3.11,0.6-6.22,1.21-9.34,1.81
	c3.14,4.22-0.64,12.47,7.44,13.62c4.36,0.62,8.89-0.01,13.34-0.14c0.07,0,0.28-0.77,0.17-1.09
	C258.17,143.84,262.09,132.71,248.69,135.61z M297.63,135.45c-2.41,3.26-9.37-3.51-8.57,4.36c0.37,3.65-4.83,9.51,3.43,11.46
	c12.46,2.95,12.58-5.7,13.15-13.64C305.68,137.11,300.54,136.22,297.63,135.45z M273.29,135.54c-2.61,0.7-5.23,1.41-7.84,2.11
	c3.08,4.04-2.57,12.7,6.23,13.16c2.85,0.15,9.81,4.92,9.72-3.66C281.34,142.02,285.09,133.28,273.29,135.54z M246.52,197.27
	c-3.68,0.18-5.79,2.09-5.91,5.52c-0.12,3.63,2.09,5.92,5.66,5.89c3.35-0.03,5.56-2.07,5.58-5.65
	C251.87,199.47,249.8,197.68,246.52,197.27z M318.38,197.27c-3.33,0.42-5.38,2.25-5.31,5.8c0.06,3.56,2.27,5.6,5.64,5.61
	c3.4,0.01,5.65-2.15,5.64-5.63C324.32,199.48,322.17,197.47,318.38,197.27z"/>
</svg>
