<?xml version="1.0" encoding="utf-8"?>
<!-- Generator: Adobe Illustrator 27.9.0, SVG Export Plug-In . SVG Version: 6.00 Build 0)  -->
<svg version="1.1" baseProfile="tiny" id="Layer_1" xmlns="http://www.w3.org/2000/svg" xmlns:xlink="http://www.w3.org/1999/xlink"
	 x="0px" y="0px" viewBox="0 0 630 300" overflow="visible" xml:space="preserve">
<path fill="#F1F2F2" d="M319.62,218.31c-2.92-0.04-5.84-0.08-8.76-0.12c-10.09-4.15-17.85-14.16-30.66-11.57
	c-12.1,2.44-20.84-2.02-25.62-13.72c-2.25-5.5-5.02-10.72-10.81-13.44c-7.95-5.15-20.62-8.14-18.94-19.68
	c2.45-16.78-7.37-28.86-11.46-43.1c-1.07-3.73,1.82-9.38,4.34-13.2c5.49-8.31,8.21-16.62,6.57-26.83
	c-1.58-9.84,3.78-16.96,12.75-20.7c9.2-3.84,15.09-10.34,19.1-19.29c4.02-8.99,11.1-13.4,21.29-11.87
	c8.73,1.31,16.71-0.14,23.92-5.75c9.63-7.51,19.42-6.98,29.01,0.42c6.66,5.13,14.29,6.85,22.45,5.44
	c10.91-1.88,18.32,2.65,22.45,12.29c4.05,9.46,10.85,15.34,20.06,19.52c8.75,3.96,13.03,11.26,11.26,21.05
	c-1.79,9.94,1.39,18.34,7.06,26.15c5.52,7.59,5.91,15.52,0.49,23.03c-6.59,9.13-8.68,18.64-7.35,29.95
	c1.57,13.38-10.3,17.11-19.29,22.46c-2.01,1.61-4.28,2.98-5.98,4.86c-5.94,6.57-6.57,18.78-16.22,20.61
	C349.47,207.78,332.87,207.01,319.62,218.31z M358.4,115.37c-0.45-23.15-20.31-42.89-42.71-42.45
	c-23.91,0.47-43.52,20.09-43.08,43.1c0.44,23.19,20.05,42.8,42.59,42.6C339.01,158.4,358.85,138.54,358.4,115.37z"/>
<path fill="#D1D3D4" d="M319.62,218.31c13.25-11.3,29.85-10.53,45.64-13.51c9.65-1.82,10.28-14.04,16.22-20.61
	c1.7-1.88,3.97-3.26,5.98-4.86c9.98,23.86,20.91,47.38,29.48,71.73c3.47,9.87-5.83,11.31-13.09,8.68
	c-21.22-7.69-33.06,2.1-41.3,20.36c-1.7,3.77-5.06,7.05-10.03,6.14c-5.63-1.03-6.31-6.39-8.09-10.45
	C336.03,256.7,327.87,237.49,319.62,218.31z M222.54,229.1c-1.47,3.43-3.39,6.74-4.31,10.3c-1.59,6.12-9.04,12.07-2.63,18.62
	c6.51,6.66,14.49,0.28,21.81,0.56c5.55,0.21,12.91-3.04,16.32-0.51c5.36,3.98,7.81,11.71,12,17.48c3.08,4.24,4.59,10.61,11.41,10.78
	c3.14,0.08,5.79-1.65,7.06-4.66c8.93-21.15,17.78-42.32,26.66-63.49c-10.09-4.15-17.85-14.16-30.66-11.57
	c-12.1,2.44-20.84-2.02-25.62-13.72c-2.25-5.5-5.02-10.72-10.81-13.44C236.69,196,229.62,212.55,222.54,229.1z"/>
</svg>
