<?xml version="1.0" encoding="utf-8"?>
<!-- Generator: Adobe Illustrator 27.9.0, SVG Export Plug-In . SVG Version: 6.00 Build 0)  -->
<svg version="1.1" baseProfile="tiny" id="Layer_1" xmlns="http://www.w3.org/2000/svg" xmlns:xlink="http://www.w3.org/1999/xlink"
	 x="0px" y="0px" viewBox="0 0 630 300" overflow="visible" xml:space="preserve">
<path fill="#F1F2F2" d="M287.31,8.53c21.45,1.47,37.08,11.84,44.52,31.97c7.43,20.11,2.35,37.86-13.11,53.11
	c-34.23,33.76-68.07,67.91-102.07,101.91c-6.69,6.69-8.16,14.43-1.4,21.24c6.78,6.83,14.57,5.46,21.29-1.25
	c40.73-40.7,81.44-81.42,122.16-122.13c18.95-18.95,49.3-18.67,68.5,0.62c18.78,18.86,18.78,49.22,0.14,67.96
	c-17.12,17.21-34.52,34.15-51,51.96c-8.67,9.37-8.03,21.13-0.87,31.08c7.58,10.54,18.87,15.02,31.12,8.94
	c12.76-6.33,26.12-11.72,33,4.66c7.24,17.27-8.59,23.23-20.65,28.04c-28.24,11.27-57.9,0.98-74.48-24.59
	c-14.88-22.93-10.62-55.29,9.99-75.9c15.62-15.62,31.24-31.24,46.86-46.86c6.82-6.82,7.38-14.67,0.69-21.05
	c-6.36-6.07-14.09-5.46-20.68,1.14c-40.78,40.79-81.57,81.57-122.36,122.35c-19.04,19.04-49.23,18.86-68.5-0.41
	c-18.9-18.89-18.95-49.34-0.12-68.15c33.94-33.92,67.75-67.96,101.87-101.69c7.63-7.55,12.17-15.71,3.49-24.04
	c-8.3-7.96-16.57-3.43-24.17,3.63c-27.45,25.5-55.11,50.76-82.93,75.86c-8.23,7.43-17.86,7.26-25.34-0.53
	c-7.85-8.18-6.55-18.13,1.49-25.48c30.87-28.21,62.03-56.11,93.47-83.68C266.2,10.24,276.72,8.57,287.31,8.53z"/>
</svg>
