<?xml version="1.0" encoding="utf-8"?>
<!-- Generator: Adobe Illustrator 27.9.0, SVG Export Plug-In . SVG Version: 6.00 Build 0)  -->
<svg version="1.1" baseProfile="tiny" id="Layer_1" xmlns="http://www.w3.org/2000/svg" xmlns:xlink="http://www.w3.org/1999/xlink"
	 x="0px" y="0px" viewBox="0 0 630 300" overflow="visible" xml:space="preserve">
<path fill="#D1D3D4" d="M414.4,293.57c-44.84-0.23-81.53-36.94-80.94-80.98c0.6-44.84,36.79-80.9,81.2-80.91
	c44.6-0.01,81.37,36.79,81.17,81.24C495.62,257.73,459.21,293.79,414.4,293.57z M414.3,239.02c-9.06,0.84-18.29,0.87-27.13,2.74
	c-8.06,1.71-12.93,8.28-15.95,15.75c-0.33,0.82,1.85,2.92,3.17,4.08c17.71,15.58,50.34,19.09,69.97,6.5
	c4.96-3.18,17.36-3.59,11.62-14.56C446.89,236.17,429.66,240.22,414.3,239.02z M441.74,194.81c0.11-14.46-12.24-26.81-27.09-27.09
	c-14.08-0.27-26.68,12.23-27.04,26.82c-0.35,14.38,12.56,27.29,27.24,27.24C429.19,221.72,441.63,209.24,441.74,194.81z"/>
<path fill="#F1F2F2" d="M279.3,97.15c38.29,0,76.59-0.28,114.87,0.21c9.09,0.12,16.04,6.3,21.82,13.17c0.4,0.48,0.43,1.28,0.62,1.93
	c-0.84,0.24-1.67,0.67-2.51,0.69c-57.47,1.63-99.88,44.85-99.12,102.46c0.4,30.71,13.17,56.22,37.77,75.33
	c0.59,0.46,0.95,1.21,1.42,1.82c-0.64,0.21-1.27,0.61-1.91,0.6c-61.09-0.1-122.19,0.2-183.27-0.61
	c-18.96-0.25-32.82-14.72-33.26-35.49c-0.91-42.77-0.67-85.6,0.5-128.36c0.53-19.36,17.36-32.82,37.04-32.84
	c35.34-0.03,70.68-0.01,106.02-0.01C279.3,96.43,279.3,96.79,279.3,97.15z M279.45,76.94c34,0,67.99,0.08,101.99-0.06
	c8.17-0.03,14.53-4.01,14.41-12.58c-0.11-8-5.38-13.25-13.97-13.26c-68.3-0.08-136.6-0.14-204.9,0.09
	c-7.72,0.03-14.23,4.13-14.12,12.75c0.1,7.68,4.91,13.08,13.07,13.13c34.51,0.22,69.01,0.09,103.52,0.09
	C279.45,77.06,279.45,77,279.45,76.94z M204.55,6.08C196.6,6.16,190,9.93,190,18.67c0,8.4,5.48,13.43,14.07,13.46
	c50.25,0.13,100.49,0.2,150.74-0.08c7.76-0.04,14.22-4.36,13.98-12.9C368.55,10.8,363.04,6.03,354.36,6
	c-24.92-0.07-49.83-0.03-74.75-0.03C254.59,5.98,229.57,5.81,204.55,6.08z"/>
</svg>
