<?xml version="1.0" encoding="utf-8"?>
<!-- Generator: Adobe Illustrator 27.9.0, SVG Export Plug-In . SVG Version: 6.00 Build 0)  -->
<svg version="1.1" baseProfile="tiny" id="Layer_1" xmlns="http://www.w3.org/2000/svg" xmlns:xlink="http://www.w3.org/1999/xlink"
	 x="0px" y="0px" viewBox="0 0 630 300" overflow="visible" xml:space="preserve">
<path fill="#D1D3D4" d="M326.62,171.27c2.05,5,7.42,4.5,11.21,6.43c7.37,3.74,15.82,5.57,22.76,9.91
	c13.04,8.15,16.14-3.01,21.67-9.88c7.8-9.67,13.6-24.52,29.94-16.88c10.03,4.69,12.93,16.79,18.57,25.8
	c14.5,23.16,28.43,46.68,42.35,70.19c3.2,5.4,4.41,11.4,0.65,17.32c-3.69,5.8-9.32,8.62-15.84,8.64
	c-47.36,0.16-94.73,0.13-142.09,0.06c-13.44-0.02-20.58-13.19-15.66-26.2c7.21-19.09,18.63-29.13,40.55-26.97
	c6.96,0.68,9.86-10.53,14.77-16.17c-4.4-2.27-8.66-4.87-13.21-6.77c-57.93-24.18-115.92-48.22-173.84-72.43
	c-7.48-3.13-11.98-8.9-8.14-17.05c5.4-11.45,14.37-8.09,23.09-4.22c1.62,0.72,3.51,0.84,5.28,1.23
	c12.87,5.35,25.76,10.67,38.62,16.06c28.18,11.79,56.34,23.61,84.52,35.42c0.56,0.18,1.11,0.35,1.67,0.53
	C317.87,167.95,322.24,169.61,326.62,171.27z"/>
<path fill="#F1F2F2" d="M279.43,239.28c0,8.37,0.23,16.74-0.06,25.1c-0.4,11.57-5.95,19.06-18.15,18.84
	c-11.61-0.21-17.28-7.29-17.54-18.61c-0.23-10.09-0.86-20.28,0.19-30.26c0.97-9.24-2.55-13.5-11-15.59
	c-4.17-1.03-8.03-3.33-12.02-5.07c-25.11-10.91-14.51,13.86-19.5,21.34c-7.15,10.73-8.77,25.03-13.56,37.49
	c-3.69,9.6-11.78,13-21.25,9.72c-13.66-4.72-14.02-14.95-9.91-26.97c10.36-30.3,20-60.84,30.69-91.02c2.69-7.59,7.78,0.06,10.5,1.18
	c24.76,10.19,49.27,21.02,73.64,32.12c6.09,2.77,7.67,9.24,7.89,15.49C279.66,221.77,279.44,230.53,279.43,239.28z M306.34,111.97
	c-8.37-24.84-36.4-44.56-62.52-43.82c-23.66,0.67-47.75,20.83-55.13,46.13c12.87,5.35,25.76,10.67,38.62,16.06
	c28.18,11.79,56.34,23.61,84.52,35.42c0.56,0.18,1.11,0.35,1.67,0.53c4.38,1.66,8.75,3.32,13.13,4.98
	C319.85,151.51,313.01,131.77,306.34,111.97z M270.53,32.23c-0.22,13.81,12.99,26.97,26.94,26.85
	c14.21-0.12,26.78-12.74,26.85-26.96c0.07-13.93-12.99-26.95-26.95-26.84C283.2,5.38,270.76,17.88,270.53,32.23z"/>
</svg>
