<?xml version="1.0" encoding="utf-8"?>
<!-- Generator: Adobe Illustrator 27.9.0, SVG Export Plug-In . SVG Version: 6.00 Build 0)  -->
<svg version="1.1" baseProfile="tiny" id="Layer_1" xmlns="http://www.w3.org/2000/svg" xmlns:xlink="http://www.w3.org/1999/xlink"
	 x="0px" y="0px" viewBox="0 0 630 300" overflow="visible" xml:space="preserve">
<path fill="#F1F2F2" d="M201.13,222.63c1.61-3.34,2.57-6.5,4.43-8.98c13.48-17.98,6.71-35.37-15.12-39.77
	c-21.93-4.42-12.87-22.45-14.25-35.33c-1.27-11.86,3.98-19.9,17.43-20.21c5.35-0.12,11.33-0.15,13.02-6.97
	c2.22-8.96,12.71-17.16,2.52-27.38c-14.88-14.92-2.98-24.47,7.05-34.41c9.94-9.85,19.79-19.2,33.4-4.99
	c3.5,3.66,8.26,6.07,13.01,2.98c7.45-4.85,20-3.4,20.61-16.99c1.28-28.76,23.35-18.55,38.72-19.81c10.62-0.87,15.62,5.16,16.96,16.1
	c2.24,18.26,23.51,25.93,38.26,14.9c19.96-14.93,26.05,6.86,36.79,14.95c8.4,6.33,10.74,14.88,2.42,24.09
	c-4.03,4.46-9.16,9.23-5.49,16.45c4.91,9.68,5.87,22.88,21.95,22.14c10.32-0.47,16.12,6.08,14.34,16
	c-2.29,12.8,9.32,31.18-10.22,37.38c-26.31,8.35-29.98,19.72-18.31,44.37c9.11,19.24-13.98,25.26-23.46,36.53
	c-3.59,4.27-9.5,3.4-14.47,0.15c-22.28-14.58-34.97-8.37-42.68,17.1c-5.81,19.17-24.05,9.76-37.09,11.01
	c-11.34,1.09-16.24-5.42-17.5-16.85c-1.9-17.12-22.31-25.62-35.61-15.62c-5.36,4.04-11.03,9.37-17.84,4.8
	C218.01,246.27,207.37,236.64,201.13,222.63z M329.09,97.1c-0.27-5.55-2.35-9.48-7.45-10.02c-5.66-0.59-8.83,2.83-9.76,8.37
	c-5.59,33.27-11.28,66.52-16.73,99.81c-0.81,4.93,1.29,9.18,6.63,10.28c4.74,0.97,8.77-1.09,9.63-6
	C317.49,165.21,323.3,130.85,329.09,97.1z M353.35,176.56c2.35-0.79,3.62-1.05,4.73-1.63c25.33-13.09,28.35-29.54,8.99-48.88
	c-1.7-1.7-3.44-3.37-5.1-5.11c-3.87-4.04-8.29-6.04-12.88-1.66c-4.74,4.53-3.43,9.85,1.26,13.1c13.99,9.69,13.75,18.59-0.09,28.08
	c-3.14,2.15-5.45,6-3.16,9.97C348.56,172.98,351.42,174.74,353.35,176.56z M268.41,114.41c-9.78,10.26-20.1,18.88-27.43,29.56
	c-4.66,6.78,4.93,11.01,8.97,15.77c3.66,4.3,7.94,8.08,11.95,12.08c4.03,4.02,8.57,6.19,13.24,1.49c4.66-4.69,2.97-9.91-1.64-13.11
	c-13.91-9.63-13.45-18.43,0.19-27.78c3.27-2.24,5.64-6.22,3.13-10.33C275.3,119.58,272.38,117.93,268.41,114.41z"/>
</svg>
