<?xml version="1.0" encoding="utf-8"?>
<!-- Generator: Adobe Illustrator 27.9.0, SVG Export Plug-In . SVG Version: 6.00 Build 0)  -->
<svg version="1.1" baseProfile="tiny" id="Layer_1" xmlns="http://www.w3.org/2000/svg" xmlns:xlink="http://www.w3.org/1999/xlink"
	 x="0px" y="0px" viewBox="0 0 630 300" overflow="visible" xml:space="preserve">
<path fill="#F1F2F2" d="M299.61,271.49c-40.41,0-80.81,0.01-121.22,0c-23.27-0.01-38.56-15.19-38.56-38.33
	c-0.01-57.58-0.01-115.17,0-172.75c0.01-22.95,15.28-38.29,38.15-38.3c81.55-0.02,163.11-0.02,244.66,0
	c22.66,0,38.1,15.34,38.11,37.88c0.03,57.88,0.03,115.76,0,173.65c-0.01,22.54-15.45,37.84-38.15,37.85
	C381.61,271.5,340.61,271.49,299.61,271.49z M237.82,218.05c6.98,0,13.96,0,20.94,0c10.1,0,20.2,0.07,30.3-0.02
	c8.62-0.08,12.07-4.29,10.66-12.76c-0.12-0.73-0.18-1.47-0.27-2.2c-2.48-19.92-16.44-34.5-35.99-37.35
	c-15.98-2.33-32.24-1.65-48.39-0.33c-20.94,1.7-36.89,18.42-39.06,39.31c-1.04,10.01,3.25,13.52,12.35,13.41
	C204.85,217.9,221.34,218.05,237.82,218.05z M273.54,111.01c-0.9-18.17-14.47-35.36-35.41-35.36c-22.18-0.01-35.86,18.11-35.7,35.88
	c0.17,18.46,14.7,35.28,35.43,35.14C259.9,146.52,272.63,128.62,273.54,111.01z M380.66,111.16c0-0.01,0-0.02,0-0.03
	c11.73,0,23.46,0.11,35.18-0.05c5.73-0.08,9.13-3.55,9.21-8.74c0.07-5.11-3.41-8.65-9.02-8.96c-2.96-0.16-5.94-0.04-8.91-0.04
	c-20.19,0-40.38-0.01-60.57,0.01c-4.2,0.01-8.08,0.85-9.78,5.35c-2.56,6.76,1.48,12.34,9.16,12.42
	C357.5,111.25,369.08,111.16,380.66,111.16z M380.31,146.78c11.58,0,23.16,0.06,34.74-0.03c6.37-0.05,9.99-3.39,9.99-8.89
	c0.01-5.47-3.64-8.79-10.01-8.88c-6.53-0.09-13.06-0.02-19.59-0.02c-16.33,0-32.66-0.02-48.99,0.01c-4.21,0.01-8.05,0.9-9.71,5.44
	c-2.48,6.78,1.58,12.26,9.29,12.33C357.45,146.87,368.88,146.79,380.31,146.78z M380.6,182.42c0-0.01,0-0.02,0-0.02
	c11.73,0,23.46,0.1,35.18-0.04c5.75-0.07,9.16-3.51,9.26-8.69c0.11-5.1-3.38-8.95-8.97-8.98c-23.75-0.13-47.5-0.1-71.25,0.04
	c-3.52,0.02-6.67,1.46-8.06,5.19c-2.52,6.74,1.49,12.4,9.1,12.48C357.44,182.51,369.02,182.42,380.6,182.42z"/>
<path fill="#1D3051" d="M237.82,218.05c-16.49,0-32.97-0.15-49.46,0.06c-9.1,0.11-13.39-3.41-12.35-13.41
	c2.17-20.89,18.12-37.61,39.06-39.31c16.15-1.31,32.41-2,48.39,0.33c19.55,2.85,33.5,17.43,35.99,37.35
	c0.09,0.73,0.15,1.47,0.27,2.2c1.41,8.47-2.04,12.68-10.66,12.76c-10.1,0.09-20.2,0.02-30.3,0.02
	C251.79,218.05,244.8,218.05,237.82,218.05z"/>
<path fill="#1D3051" d="M273.54,111.01c-0.91,17.6-13.64,35.51-35.68,35.66c-20.73,0.14-35.26-16.68-35.43-35.14
	c-0.16-17.77,13.52-35.89,35.7-35.88C259.07,75.66,272.64,92.84,273.54,111.01z"/>
</svg>
