<?xml version="1.0" encoding="utf-8"?>
<!-- Generator: Adobe Illustrator 27.9.0, SVG Export Plug-In . SVG Version: 6.00 Build 0)  -->
<svg version="1.1" baseProfile="tiny" id="Layer_1" xmlns="http://www.w3.org/2000/svg" xmlns:xlink="http://www.w3.org/1999/xlink"
	 x="0px" y="0px" viewBox="0 0 630 300" overflow="visible" xml:space="preserve">
<path fill="#F1F2F2" d="M303.76,18.75c33.77,0,67.55-0.03,101.32,0.01c21.73,0.03,36.73,15.05,36.74,36.81
	c0.03,50.1,0.03,100.2,0,150.3c-0.01,21.97-15.45,39.65-37.01,36.35c-54.95-8.4-98.48,11.42-136.4,48.77
	c-3.27,3.22-7.15,4.42-11.76,2.15c-4.51-2.22-4.6-6.05-4.6-10.16c-0.02-40.21-0.03-40.21-40.41-40.21
	c-34.38,0-45.83-11.45-45.83-45.84c0-46.94-0.01-93.89,0-140.83c0-22.55,14.86-37.35,37.5-37.36
	C236.79,18.75,270.28,18.75,303.76,18.75z M303.62,44.6c-33.63,0-67.26,0.05-100.89-0.04c-7.45-0.02-11.09,3.22-11.08,10.82
	c0.06,50.25,0.06,100.49,0,150.74c-0.01,7.56,3.55,10.91,11.06,10.84c15.23-0.13,30.47-0.04,45.7-0.04
	c19.07,0,29.48,10.42,29.55,29.53c0.01,1.34,0.37,2.68,0.57,4.03c1.2-0.72,2.61-1.24,3.58-2.19c25.82-25.33,56.08-37.07,92.62-31.59
	c9.84,1.47,20.09,0.11,30.15,0.26c7.77,0.11,11.13-3.52,11.11-11.23c-0.09-49.96-0.09-99.92,0-149.87
	c0.02-7.98-3.57-11.34-11.49-11.31C370.88,44.68,337.25,44.6,303.62,44.6z"/>
<path fill="#F1F2F2" d="M301.56,61.85c33.6-0.01,45.67,7.12,49.14,30.8c2.28,15.55-5.91,26.36-18.95,34.13
	c-6.67,3.98-14.92,5.75-17.47,15.37c-1.18,4.47-6.99,6.37-12.38,5.56c-6.02-0.91-9.83-4.65-10.56-10.31
	c-0.9-6.94-2.49-14.76,4.79-19.6c7.85-5.23,16.11-9.84,24.24-14.64c3.54-2.09,5.75-4.74,4.7-9.11c-1.07-4.47-4.28-6.28-8.52-6.33
	c-10.05-0.11-20.11-0.11-30.16,0.04c-1.4,0.02-3.58,0.75-4.06,1.77c-4.78,10.2-12.42,14.08-21.38,6.58
	c-9.84-8.23-3.31-16.93,2.71-24.2C273.75,59.73,288.05,61.95,301.56,61.85z"/>
<path fill="#F1F2F2" d="M321.22,182.42c-0.98,10.51-6.35,17.13-17.35,17.13c-10.64,0-16.97-6.04-17.15-16.71
	c-0.18-10.84,5.92-17.27,16.82-17.46C314.48,165.19,320.1,171.61,321.22,182.42z"/>
</svg>
