<?xml version="1.0" standalone="no"?>
<!DOCTYPE svg PUBLIC "-//W3C//DTD SVG 20010904//EN"
 "http://www.w3.org/TR/2001/REC-SVG-20010904/DTD/svg10.dtd">
<svg version="1.0" xmlns="http://www.w3.org/2000/svg"
 width="300.000000pt" height="95.000000pt" viewBox="0 0 300.000000 95.000000"
 preserveAspectRatio="xMidYMid meet">
<metadata>
Created by potrace 1.10, written by Peter Selinger 2001-2011
</metadata>
<g transform="translate(0.000000,95.000000) scale(0.100000,-0.100000)">
<path d="M800 921 c0 -5 7 -11 15 -15 26 -10 18 -64 -13 -96 -29 -29 -98 -54
-134 -48 -19 3 -19 4 4 38 13 19 39 43 58 52 27 14 30 19 17 24 -36 13 -91
-23 -121 -80 l-15 -29 -95 2 c-103 2 -164 -15 -215 -62 -33 -31 -61 -95 -61
-142 0 -74 59 -133 107 -107 16 10 16 11 -9 21 -58 22 -69 117 -21 184 43 61
91 82 196 84 87 1 89 1 83 -20 -3 -12 -18 -85 -31 -162 -49 -273 -82 -374
-142 -446 -97 -114 -314 -94 -362 34 -31 82 3 203 68 241 39 22 99 26 134 7
32 -17 60 -85 53 -126 -8 -41 -42 -95 -61 -95 -8 0 -15 -4 -15 -10 0 -18 59
-11 80 10 65 65 48 188 -31 235 -47 27 -124 26 -171 -3 -110 -68 -126 -248
-29 -335 53 -48 97 -60 196 -55 193 10 282 127 321 420 9 68 21 161 27 208
l12 85 55 6 c69 7 115 31 140 72 22 36 26 87 8 105 -14 14 -48 16 -48 3z"/>
<path d="M905 896 c-86 -92 -205 -495 -193 -657 3 -44 10 -65 28 -84 32 -34
88 -34 129 1 37 31 84 127 102 207 11 53 14 57 41 57 35 0 78 40 78 71 0 25
-7 21 -24 -13 -8 -17 -22 -24 -49 -26 -37 -3 -37 -3 -37 35 0 47 -19 77 -46
72 -32 -7 -32 -78 0 -111 l26 -25 -21 -72 c-39 -142 -98 -218 -149 -191 -28
15 -35 69 -21 169 25 178 35 208 80 249 51 47 106 138 131 221 24 76 25 95 4
115 -24 24 -43 19 -79 -18z m63 -41 c-3 -24 -22 -79 -42 -121 -35 -74 -94
-160 -103 -150 -7 6 42 172 68 232 24 56 46 84 67 84 11 0 14 -10 10 -45z"/>
<path d="M2012 896 c-41 -47 -68 -122 -109 -306 -37 -166 -68 -244 -140 -353
-65 -97 -103 -112 -103 -39 0 20 9 87 21 149 19 93 20 115 9 128 -7 9 -17 12
-21 8 -4 -4 -33 -59 -66 -122 -34 -68 -77 -134 -105 -164 -42 -44 -49 -49 -64
-36 -13 11 -15 26 -12 84 12 170 131 330 189 254 18 -23 19 -23 19 -3 0 51
-75 63 -136 22 -103 -69 -171 -299 -109 -368 25 -28 76 -26 112 4 16 13 46 54
67 90 21 36 41 66 45 66 3 0 5 -31 3 -70 -3 -63 -1 -72 22 -95 14 -14 32 -25
40 -25 27 0 85 61 127 131 23 38 43 69 44 69 2 0 -3 -25 -11 -56 -19 -69 -15
-128 7 -132 12 -2 24 20 49 90 65 186 135 304 177 296 27 -5 27 -37 -1 -152
-43 -175 -45 -225 -10 -260 18 -18 33 -20 54 -6 13 9 13 11 0 20 -21 13 -17
101 8 210 39 166 30 210 -44 210 -43 0 -98 -54 -133 -129 -14 -28 -28 -51 -31
-51 -4 0 1 41 11 92 17 82 23 96 62 137 52 56 103 156 118 233 10 49 9 61 -5
83 -22 34 -48 31 -84 -9z m66 -51 c-5 -60 -71 -206 -107 -240 -27 -23 -27 -16
5 107 33 131 61 188 91 188 13 0 15 -11 11 -55z"/>
<path d="M2341 678 c-21 -49 -19 -58 10 -51 29 8 55 51 43 71 -19 29 -34 24
-53 -20z"/>
<path d="M1274 540 c-31 -12 -81 -76 -106 -137 -12 -29 -25 -53 -29 -53 -3 0
0 27 7 59 15 65 7 111 -21 111 -8 0 -15 -3 -15 -6 0 -3 -14 -85 -31 -181 -16
-96 -28 -182 -25 -190 14 -35 39 -5 65 77 47 145 135 300 169 300 21 0 21 -34
2 -77 -24 -55 -24 -53 -2 -53 32 0 62 42 62 87 0 53 -32 79 -76 63z"/>
<path d="M2664 531 c-32 -20 -87 -97 -105 -149 -19 -54 -27 -35 -13 27 10 42
11 67 4 85 -14 39 -38 33 -45 -11 -10 -59 -31 -112 -79 -193 -50 -86 -100
-144 -118 -138 -23 8 -20 90 8 215 27 122 27 173 -1 173 -19 0 -20 -1 -49
-133 -27 -119 -35 -205 -22 -243 6 -19 43 -44 66 -44 22 0 85 69 127 139 25
42 43 65 40 51 -18 -81 -28 -154 -23 -166 8 -20 36 -17 42 3 31 97 103 263
134 312 39 60 71 78 83 47 3 -7 -5 -78 -19 -157 -29 -175 -31 -219 -6 -219 12
0 22 17 35 63 41 139 143 317 183 317 26 0 25 -26 -5 -158 -17 -71 -31 -146
-31 -165 0 -46 18 -85 43 -93 29 -9 38 7 25 43 -10 27 -8 53 15 166 32 161 33
191 7 217 -24 24 -32 25 -76 4 -32 -15 -85 -85 -112 -148 -17 -39 -23 -29 -12
19 16 66 12 113 -10 135 -25 25 -46 25 -86 1z"/>
</g>
</svg>
